<svg xmlns="http://www.w3.org/2000/svg" xmlns:xlink="http://www.w3.org/1999/xlink" width="2000" zoomAndPan="magnify" viewBox="0 0 1500 1499.999933" height="2000" preserveAspectRatio="xMidYMid meet" version="1.0"><rect x="-150" width="1800" fill="#ffffff" y="-149.999993" height="1799.99992" fill-opacity="1"/><rect x="-150" width="1800" fill="#ffffff" y="-149.999993" height="1799.99992" fill-opacity="1"/><path fill="#000000" d="M 634.140625 551.675781 L 629.546875 551.675781 L 628.527344 551.164062 L 625.460938 551.164062 L 624.441406 550.65625 L 622.910156 550.65625 L 621.886719 550.144531 L 620.867188 549.632812 L 619.84375 549.125 L 618.824219 548.613281 L 617.292969 547.082031 L 616.78125 546.058594 L 616.527344 544.78125 L 616.527344 543.25 L 617.035156 542.230469 L 617.546875 541.207031 L 618.058594 540.1875 L 618.566406 539.167969 L 620.101562 537.632812 L 620.609375 536.613281 L 621.375 535.847656 L 622.144531 535.082031 L 622.910156 534.316406 L 623.929688 533.804688 L 625.460938 532.273438 L 626.484375 531.761719 L 628.015625 530.230469 L 629.035156 529.71875 L 630.058594 529.207031 L 631.078125 528.699219 L 631.84375 527.933594 L 632.867188 527.421875 L 633.632812 526.65625 L 634.652344 526.144531 L 635.675781 525.632812 L 636.695312 525.125 L 637.714844 524.613281 L 638.738281 524.101562 L 639.503906 523.335938 L 640.523438 522.824219 L 641.546875 522.316406 L 642.566406 521.804688 L 643.589844 521.292969 L 644.609375 520.785156 L 645.632812 520.273438 L 646.90625 520.019531 L 647.929688 519.507812 L 648.949219 518.996094 L 649.972656 518.484375 L 650.992188 517.976562 L 652.015625 517.464844 L 653.035156 516.953125 L 654.566406 516.953125 L 655.589844 516.441406 L 656.609375 515.933594 L 657.632812 515.421875 L 658.652344 514.910156 L 660.183594 514.910156 L 661.207031 514.402344 L 663.246094 513.378906 L 664.523438 513.125 L 665.800781 512.867188 L 667.078125 512.613281 L 667.84375 511.847656 L 669.375 511.847656 L 670.398438 511.335938 L 671.929688 511.335938 L 672.949219 510.828125 L 673.972656 510.316406 L 675.246094 510.058594 L 676.523438 509.804688 L 678.054688 509.804688 L 679.332031 509.550781 L 680.609375 509.292969 L 681.628906 508.785156 L 683.164062 508.785156 L 684.183594 508.273438 L 685.714844 508.273438 L 686.992188 508.019531 L 688.269531 507.761719 L 695.929688 507.761719 L 696.695312 507.507812 L 697.96875 507.761719 L 702.566406 507.761719 L 703.84375 508.019531 L 705.121094 508.273438 L 706.394531 508.527344 L 707.417969 509.039062 L 708.183594 509.804688 L 709.460938 510.058594 L 710.226562 510.828125 L 710.992188 511.59375 L 711.503906 512.613281 L 711.757812 513.890625 L 711.757812 514.910156 L 711.503906 516.1875 L 711.246094 517.464844 L 710.734375 518.484375 L 710.226562 519.507812 L 708.695312 521.039062 L 708.183594 522.058594 L 707.417969 522.824219 L 706.652344 523.59375 L 705.628906 524.101562 L 704.863281 524.867188 L 704.351562 525.890625 L 703.332031 526.402344 L 702.566406 527.167969 L 701.542969 527.675781 L 700.523438 528.1875 L 699.757812 528.953125 L 698.738281 529.464844 L 697.96875 530.230469 L 696.949219 530.742188 L 695.929688 531.25 L 694.90625 531.761719 L 693.886719 532.273438 L 692.355469 533.804688 L 691.332031 534.316406 L 690.3125 534.824219 L 689.289062 535.335938 L 688.269531 535.847656 L 687.246094 536.359375 L 685.972656 536.613281 L 684.949219 537.125 L 684.183594 537.890625 L 681.628906 538.398438 L 680.863281 539.167969 L 679.589844 539.421875 L 678.566406 539.933594 L 677.546875 540.441406 L 676.523438 540.953125 L 675.503906 541.464844 L 674.226562 541.71875 L 673.207031 542.230469 L 672.183594 542.742188 L 670.90625 542.996094 L 669.886719 543.507812 L 668.863281 544.015625 L 667.589844 544.273438 L 666.3125 544.527344 L 665.289062 545.039062 L 664.015625 545.292969 L 662.738281 545.550781 L 661.714844 546.058594 L 660.695312 546.570312 L 659.417969 546.824219 L 658.140625 547.082031 L 656.863281 547.335938 L 655.84375 547.847656 L 654.566406 548.101562 L 653.546875 548.613281 L 650.480469 548.613281 L 649.460938 549.125 L 648.441406 549.632812 L 647.164062 549.890625 L 645.886719 550.144531 L 642.824219 550.144531 L 641.800781 550.65625 L 640.269531 550.65625 L 639.25 551.164062 L 634.652344 551.164062 Z M 634.140625 551.675781 " fill-opacity="1" fill-rule="nonzero"/><path fill="#000000" d="M 540.699219 647.164062 L 534.570312 647.164062 L 533.550781 646.652344 L 532.015625 646.652344 L 530.996094 646.140625 L 529.71875 645.886719 L 528.953125 645.121094 L 527.933594 644.609375 L 527.421875 643.589844 L 526.65625 642.824219 L 526.144531 641.800781 L 525.632812 640.78125 L 525.125 639.757812 L 525.125 633.632812 L 525.632812 632.609375 L 525.890625 631.332031 L 526.144531 630.058594 L 526.65625 629.035156 L 527.167969 628.015625 L 527.421875 626.738281 L 527.933594 625.71875 L 528.441406 624.695312 L 528.699219 623.417969 L 529.207031 622.398438 L 529.976562 621.632812 L 530.484375 620.609375 L 530.996094 619.589844 L 531.507812 618.566406 L 532.273438 617.800781 L 532.785156 616.78125 L 533.292969 615.761719 L 534.058594 614.992188 L 535.082031 612.953125 L 535.847656 612.183594 L 537.378906 610.652344 L 537.890625 609.632812 L 539.421875 608.101562 L 539.933594 607.078125 L 540.699219 606.3125 L 541.71875 605.800781 L 542.230469 604.78125 L 543.25 604.269531 L 544.78125 602.738281 L 545.550781 601.972656 L 549.378906 598.144531 L 550.398438 597.632812 L 551.421875 597.121094 L 552.953125 595.589844 L 553.972656 595.078125 L 554.738281 594.3125 L 555.507812 593.546875 L 556.527344 593.035156 L 557.292969 592.269531 L 558.570312 592.015625 L 560.101562 590.484375 L 561.378906 590.230469 L 562.144531 589.460938 L 563.164062 588.953125 L 564.1875 588.441406 L 564.953125 587.675781 L 565.972656 587.164062 L 566.996094 586.652344 L 568.015625 586.144531 L 569.039062 585.632812 L 570.058594 585.121094 L 571.082031 584.613281 L 571.847656 583.847656 L 573.886719 582.824219 L 574.910156 582.3125 L 575.929688 581.804688 L 576.953125 581.292969 L 578.230469 581.039062 L 578.996094 580.269531 L 580.015625 579.761719 L 581.546875 579.761719 L 582.3125 578.996094 L 583.335938 578.484375 L 584.613281 578.230469 L 586.652344 577.207031 L 587.675781 576.695312 L 590.230469 576.1875 L 592.269531 575.164062 L 593.292969 574.65625 L 594.570312 574.398438 L 595.84375 574.144531 L 596.867188 573.632812 L 597.886719 573.121094 L 598.910156 572.613281 L 600.441406 572.613281 L 601.460938 572.101562 L 602.484375 571.589844 L 603.761719 571.335938 L 605.035156 571.082031 L 606.058594 570.570312 L 607.078125 570.058594 L 608.355469 569.804688 L 609.632812 569.546875 L 610.652344 569.039062 L 612.183594 569.039062 L 613.207031 568.527344 L 614.226562 568.015625 L 615.761719 568.015625 L 616.78125 567.503906 L 618.3125 567.503906 L 619.589844 567.25 L 620.609375 566.738281 L 623.164062 566.230469 L 624.441406 565.972656 L 625.460938 565.464844 L 626.992188 565.464844 L 628.015625 564.953125 L 629.546875 564.953125 L 630.566406 564.441406 L 631.589844 563.929688 L 634.652344 563.929688 L 635.675781 563.421875 L 636.695312 562.910156 L 637.972656 562.65625 L 639.25 562.398438 L 640.523438 562.144531 L 641.800781 561.890625 L 642.824219 561.378906 L 644.097656 561.121094 L 645.375 560.867188 L 646.90625 560.867188 L 647.929688 560.355469 L 649.460938 560.355469 L 650.480469 559.847656 L 651.503906 559.335938 L 653.035156 559.335938 L 654.058594 558.824219 L 655.589844 558.824219 L 656.609375 558.316406 L 658.140625 558.316406 L 659.164062 557.804688 L 660.183594 557.292969 L 661.714844 557.292969 L 662.738281 556.78125 L 664.269531 556.78125 L 665.289062 556.273438 L 666.566406 556.015625 L 667.84375 555.761719 L 669.375 555.761719 L 670.398438 555.25 L 671.671875 554.996094 L 672.949219 554.738281 L 673.972656 554.230469 L 674.992188 553.71875 L 676.523438 553.71875 L 677.800781 553.464844 L 679.078125 553.207031 L 680.097656 552.699219 L 681.121094 552.1875 L 682.652344 552.1875 L 683.671875 551.675781 L 685.203125 551.675781 L 686.226562 551.164062 L 687.246094 550.65625 L 688.523438 550.398438 L 691.078125 549.890625 L 692.355469 549.632812 L 693.375 549.125 L 694.394531 548.613281 L 695.929688 548.613281 L 696.949219 548.101562 L 698.480469 548.101562 L 699.246094 547.335938 L 700.523438 547.082031 L 701.800781 546.824219 L 703.078125 546.570312 L 704.097656 546.058594 L 705.375 545.804688 L 706.394531 545.292969 L 707.671875 545.039062 L 708.695312 544.527344 L 709.96875 544.273438 L 710.992188 543.761719 L 712.269531 543.507812 L 713.289062 542.996094 L 714.566406 542.742188 L 715.84375 542.484375 L 716.863281 541.972656 L 717.886719 541.464844 L 719.160156 541.207031 L 720.4375 540.953125 L 721.460938 540.441406 L 722.480469 539.933594 L 723.5 539.421875 L 725.035156 539.421875 L 727.074219 538.398438 L 728.097656 537.890625 L 729.117188 537.378906 L 730.394531 537.125 L 731.417969 536.613281 L 732.691406 536.359375 L 733.714844 535.847656 L 734.992188 535.589844 L 736.011719 535.082031 L 737.035156 534.570312 L 738.308594 534.316406 L 739.332031 533.804688 L 740.351562 533.292969 L 741.375 532.785156 L 742.90625 532.785156 L 743.925781 532.273438 L 744.949219 531.761719 L 745.96875 531.25 L 748.523438 530.742188 L 749.542969 530.230469 L 750.566406 529.71875 L 751.585938 529.207031 L 753.117188 529.207031 L 754.140625 528.699219 L 755.414062 528.441406 L 756.4375 527.933594 L 757.714844 527.675781 L 758.734375 527.167969 L 760.265625 527.167969 L 761.289062 526.65625 L 762.308594 526.144531 L 763.839844 526.144531 L 764.863281 525.632812 L 765.882812 525.125 L 767.414062 525.125 L 768.4375 524.613281 L 769.457031 524.101562 L 770.988281 524.101562 L 772.011719 523.59375 L 773.542969 523.59375 L 774.5625 523.082031 L 776.097656 523.082031 L 777.117188 522.570312 L 778.648438 522.570312 L 779.671875 522.058594 L 782.734375 522.058594 L 783.753906 521.550781 L 786.820312 521.550781 L 788.097656 521.292969 L 789.371094 521.039062 L 790.902344 521.039062 L 792.179688 520.785156 L 793.457031 520.527344 L 813.371094 520.527344 L 814.648438 520.785156 L 815.925781 521.039062 L 817.457031 521.039062 L 818.476562 521.550781 L 821.542969 521.550781 L 822.5625 522.058594 L 827.160156 522.058594 L 828.179688 522.570312 L 829.457031 522.824219 L 830.734375 523.082031 L 831.753906 523.59375 L 833.285156 523.59375 L 834.308594 524.101562 L 835.839844 524.101562 L 836.859375 524.613281 L 837.882812 525.125 L 839.414062 525.125 L 840.433594 525.632812 L 841.964844 525.632812 L 842.988281 526.144531 L 844.007812 526.65625 L 845.03125 527.167969 L 846.5625 527.167969 L 847.582031 527.675781 L 848.605469 528.1875 L 849.625 528.699219 L 850.648438 529.207031 L 852.179688 529.207031 L 853.199219 529.71875 L 854.222656 530.230469 L 855.242188 530.742188 L 856.265625 531.25 L 857.539062 531.507812 L 858.308594 532.273438 L 859.328125 532.785156 L 860.347656 533.292969 L 861.371094 533.804688 L 862.390625 534.316406 L 863.414062 534.824219 L 864.433594 535.335938 L 865.457031 535.847656 L 866.476562 536.359375 L 867.496094 536.867188 L 868.265625 537.632812 L 869.539062 537.890625 L 870.304688 538.65625 L 871.074219 539.421875 L 872.09375 539.933594 L 872.859375 540.699219 L 873.878906 541.207031 L 875.15625 541.464844 L 875.667969 542.484375 L 876.6875 542.996094 L 877.457031 543.761719 L 878.222656 544.527344 L 879.242188 545.039062 L 880.773438 546.570312 L 881.796875 547.082031 L 885.625 550.910156 L 886.644531 551.421875 L 887.414062 552.1875 L 888.179688 552.953125 L 888.6875 553.972656 L 891.753906 557.039062 L 892.261719 558.058594 L 893.027344 558.824219 L 893.796875 559.589844 L 895.328125 561.121094 L 895.835938 562.144531 L 896.605469 562.910156 L 897.371094 563.675781 L 897.878906 564.699219 L 898.390625 565.71875 L 899.15625 566.484375 L 899.667969 567.503906 L 900.433594 568.273438 L 900.945312 569.292969 L 901.453125 570.3125 L 901.964844 571.335938 L 902.730469 572.101562 L 902.988281 573.378906 L 903.496094 574.398438 L 904.261719 575.164062 L 904.773438 576.1875 L 905.027344 577.464844 L 906.050781 579.503906 L 906.5625 580.527344 L 906.816406 581.804688 L 907.070312 583.078125 L 907.070312 592.269531 L 906.5625 593.292969 L 906.5625 594.824219 L 906.050781 595.84375 L 905.539062 596.867188 L 905.027344 597.886719 L 904.519531 598.910156 L 904.007812 599.929688 L 903.242188 600.695312 L 902.730469 601.71875 L 901.964844 602.484375 L 901.453125 603.503906 L 900.6875 604.269531 L 899.667969 604.78125 L 896.605469 607.84375 L 895.582031 608.355469 L 894.5625 608.867188 L 893.539062 609.378906 L 892.519531 609.886719 L 891.496094 610.398438 L 890.476562 610.910156 L 889.453125 611.417969 L 888.179688 611.675781 L 886.902344 611.929688 L 885.878906 612.441406 L 884.859375 612.953125 L 881.796875 612.953125 L 880.773438 613.460938 L 866.988281 613.460938 L 865.964844 612.953125 L 862.902344 612.953125 L 861.882812 612.441406 L 860.347656 612.441406 L 859.328125 611.929688 L 857.796875 611.929688 L 856.773438 611.417969 L 853.710938 611.417969 L 852.691406 610.910156 L 851.414062 610.652344 L 850.136719 610.398438 L 849.117188 609.886719 L 847.582031 609.886719 L 846.5625 609.378906 L 845.285156 609.121094 L 844.265625 608.609375 L 842.988281 608.355469 L 841.457031 608.355469 L 840.433594 607.84375 L 839.160156 607.589844 L 837.882812 607.335938 L 836.859375 606.824219 L 835.582031 606.570312 L 834.308594 606.3125 L 833.285156 605.800781 L 832.007812 605.546875 L 830.988281 605.035156 L 829.710938 604.78125 L 828.691406 604.269531 L 827.667969 603.761719 L 826.648438 603.25 L 825.625 602.738281 L 824.09375 602.738281 L 823.074219 602.226562 L 822.050781 601.71875 L 820.011719 600.695312 L 818.734375 600.441406 L 817.96875 599.675781 L 816.945312 599.164062 L 815.667969 598.910156 L 814.648438 598.398438 L 813.882812 597.632812 L 812.605469 597.378906 L 811.585938 596.867188 L 810.5625 596.355469 L 809.542969 595.84375 L 808.519531 595.335938 L 807.5 594.824219 L 806.734375 594.058594 L 805.203125 594.058594 L 804.4375 593.292969 L 803.667969 592.527344 L 802.394531 592.269531 L 801.371094 591.761719 L 800.605469 590.996094 L 799.585938 590.484375 L 798.308594 590.230469 L 797.285156 589.71875 L 796.519531 588.953125 L 794.480469 587.929688 L 793.457031 587.421875 L 792.4375 586.910156 L 791.414062 586.398438 L 790.394531 585.886719 L 789.371094 585.378906 L 788.351562 584.867188 L 787.328125 584.355469 L 786.308594 583.847656 L 785.289062 583.335938 L 784.519531 582.570312 L 783.5 582.058594 L 782.222656 581.804688 L 781.457031 581.039062 L 780.691406 580.269531 L 778.136719 579.761719 L 776.605469 578.230469 L 775.332031 577.972656 L 774.5625 577.207031 L 773.542969 576.695312 L 772.523438 576.1875 L 771.246094 575.929688 L 770.480469 575.164062 L 769.457031 574.65625 L 767.925781 574.65625 L 767.160156 573.886719 L 766.140625 573.378906 L 764.863281 573.121094 L 763.839844 572.613281 L 763.074219 571.847656 L 761.796875 571.589844 L 760.777344 571.082031 L 759.757812 570.570312 L 758.734375 570.058594 L 757.714844 569.546875 L 755.160156 569.039062 L 754.394531 568.273438 L 753.117188 568.015625 L 751.839844 567.761719 L 750.566406 567.503906 L 749.542969 566.996094 L 748.523438 566.484375 L 747.5 565.972656 L 745.96875 565.972656 L 744.949219 565.464844 L 743.925781 564.953125 L 742.90625 564.441406 L 741.375 564.441406 L 740.351562 563.929688 L 739.074219 563.675781 L 738.054688 563.164062 L 736.777344 562.910156 L 735.757812 562.398438 L 734.226562 562.398438 L 731.671875 561.890625 L 730.652344 561.378906 L 729.628906 560.867188 L 728.097656 560.867188 L 726.820312 560.613281 L 725.542969 560.355469 L 724.269531 560.101562 L 722.992188 559.847656 L 721.96875 559.335938 L 720.4375 559.335938 L 719.160156 559.082031 L 717.886719 558.824219 L 716.351562 558.824219 L 715.332031 558.316406 L 713.800781 558.316406 L 712.777344 557.804688 L 711.246094 557.804688 L 710.226562 557.292969 L 702.566406 557.292969 L 701.542969 556.78125 L 690.820312 556.78125 L 689.800781 557.292969 L 685.203125 557.292969 L 683.929688 557.546875 L 682.652344 557.804688 L 681.628906 558.316406 L 680.355469 558.570312 L 679.078125 558.824219 L 677.546875 558.824219 L 676.269531 559.082031 L 673.714844 559.589844 L 672.695312 560.101562 L 671.417969 560.355469 L 670.140625 560.613281 L 668.863281 560.867188 L 667.84375 561.378906 L 666.566406 561.632812 L 665.289062 561.890625 L 664.269531 562.398438 L 663.246094 562.910156 L 661.714844 562.910156 L 660.695312 563.421875 L 659.671875 563.929688 L 658.652344 564.441406 L 657.375 564.699219 L 656.355469 565.207031 L 655.332031 565.71875 L 654.058594 565.972656 L 653.035156 566.484375 L 652.269531 567.25 L 650.992188 567.503906 L 649.972656 568.015625 L 648.949219 568.527344 L 647.929688 569.039062 L 646.90625 569.546875 L 645.886719 570.058594 L 645.121094 570.824219 L 643.84375 571.082031 L 642.824219 571.589844 L 642.058594 572.355469 L 641.035156 572.867188 L 640.015625 573.378906 L 638.992188 573.886719 L 638.226562 574.65625 L 637.207031 575.164062 L 636.183594 575.675781 L 635.417969 576.441406 L 634.398438 576.953125 L 633.375 577.464844 L 631.078125 579.761719 L 630.058594 580.269531 L 629.035156 580.78125 L 626.738281 583.078125 L 625.71875 583.589844 L 624.695312 584.101562 L 622.398438 586.398438 L 621.375 586.910156 L 618.3125 589.972656 L 617.292969 590.484375 L 615.761719 592.015625 L 614.992188 592.78125 L 614.226562 593.546875 L 613.207031 594.058594 L 609.378906 597.886719 L 608.609375 598.652344 L 607.84375 599.417969 L 607.078125 600.1875 L 606.3125 600.953125 L 605.292969 601.460938 L 604.527344 602.226562 L 603.761719 602.996094 L 602.996094 603.761719 L 602.226562 604.527344 L 595.335938 611.417969 L 594.3125 611.929688 L 593.804688 612.953125 L 592.78125 613.460938 L 591.25 614.992188 L 590.484375 615.761719 L 588.1875 618.058594 L 587.164062 618.566406 L 586.398438 619.335938 L 585.632812 620.101562 L 584.613281 620.609375 L 581.546875 623.675781 L 580.527344 624.183594 L 579.761719 624.949219 L 578.996094 625.71875 L 578.230469 626.484375 L 577.207031 626.992188 L 576.441406 627.757812 L 575.675781 628.527344 L 574.65625 629.035156 L 573.886719 629.800781 L 573.121094 630.566406 L 572.101562 631.078125 L 571.335938 631.84375 L 570.3125 632.355469 L 569.292969 632.867188 L 567.761719 634.398438 L 566.738281 634.910156 L 565.972656 635.675781 L 564.953125 636.183594 L 563.929688 636.695312 L 563.164062 637.460938 L 562.144531 637.972656 L 561.121094 638.484375 L 560.101562 638.992188 L 559.082031 639.503906 L 558.058594 640.015625 L 557.292969 640.78125 L 556.273438 641.292969 L 555.25 641.800781 L 554.484375 642.566406 L 553.207031 642.824219 L 551.933594 643.078125 L 550.910156 643.589844 L 549.890625 644.097656 L 548.867188 644.609375 L 547.847656 645.121094 L 546.316406 645.121094 L 545.550781 645.886719 L 544.273438 646.140625 L 543.25 646.652344 L 541.71875 646.652344 Z M 540.699219 647.164062 " fill-opacity="1" fill-rule="nonzero"/><path fill="#000000" d="M 965.027344 716.097656 L 960.433594 716.097656 L 959.410156 715.585938 L 956.855469 715.078125 L 955.582031 714.820312 L 954.304688 714.566406 L 953.539062 713.800781 L 952.515625 713.289062 L 951.242188 713.035156 L 950.472656 712.269531 L 948.433594 711.246094 L 947.15625 710.992188 L 945.625 709.460938 L 944.601562 708.949219 L 943.835938 708.183594 L 942.816406 707.671875 L 941.792969 707.160156 L 941.027344 706.394531 L 940.007812 705.886719 L 939.242188 705.121094 L 938.476562 704.351562 L 937.707031 703.585938 L 930.816406 696.695312 L 930.304688 695.671875 L 929.285156 695.160156 L 928.519531 694.394531 L 928.007812 693.375 L 927.242188 692.609375 L 926.730469 691.585938 L 926.21875 690.566406 L 925.199219 690.054688 L 924.6875 689.035156 L 923.921875 688.269531 L 923.410156 687.246094 L 921.878906 685.714844 L 921.367188 684.695312 L 920.859375 683.671875 L 919.835938 683.164062 L 919.328125 682.140625 L 918.816406 681.121094 L 918.050781 680.355469 L 917.539062 679.332031 L 916.007812 677.800781 L 915.496094 676.78125 L 914.730469 676.011719 L 914.21875 674.992188 L 913.710938 673.972656 L 912.175781 672.4375 L 911.667969 671.417969 L 910.644531 670.90625 L 910.136719 669.886719 L 909.371094 669.121094 L 908.601562 668.355469 L 908.09375 667.332031 L 907.582031 666.3125 L 905.285156 664.015625 L 904.519531 663.246094 L 902.988281 661.714844 L 902.21875 660.949219 L 901.453125 660.183594 L 900.945312 659.164062 L 899.921875 658.652344 L 899.410156 657.632812 L 898.390625 657.121094 L 896.859375 655.589844 L 895.835938 655.078125 L 893.539062 652.78125 L 892.519531 652.269531 L 891.753906 651.503906 L 890.730469 650.992188 L 889.964844 650.226562 L 888.945312 649.714844 L 888.179688 648.949219 L 887.15625 648.441406 L 886.136719 647.929688 L 885.371094 647.164062 L 884.347656 646.652344 L 883.328125 646.140625 L 882.816406 645.121094 L 881.796875 644.609375 L 880.773438 644.097656 L 879.753906 643.589844 L 878.730469 643.078125 L 877.710938 642.566406 L 876.945312 641.800781 L 875.667969 641.546875 L 874.648438 641.035156 L 873.878906 640.269531 L 872.859375 639.757812 L 871.582031 639.503906 L 870.5625 638.992188 L 869.796875 638.226562 L 868.519531 637.972656 L 867.496094 637.460938 L 866.222656 637.207031 L 865.457031 636.441406 L 864.179688 636.183594 L 861.625 635.675781 L 860.347656 635.417969 L 859.328125 634.910156 L 857.796875 634.910156 L 856.773438 634.398438 L 852.179688 634.398438 L 851.15625 633.886719 L 846.5625 633.886719 L 845.285156 633.632812 L 844.007812 633.375 L 834.816406 633.375 L 833.796875 632.867188 L 829.199219 632.867188 L 827.925781 633.121094 L 826.648438 633.375 L 822.050781 633.375 L 821.03125 633.886719 L 814.902344 633.886719 L 813.628906 634.140625 L 812.351562 634.398438 L 807.753906 634.398438 L 806.734375 634.910156 L 805.203125 634.910156 L 804.179688 635.417969 L 802.648438 635.417969 L 801.628906 635.929688 L 798.5625 635.929688 L 797.285156 636.183594 L 796.011719 636.441406 L 794.480469 636.441406 L 791.925781 636.949219 L 790.902344 637.460938 L 789.371094 637.460938 L 788.351562 637.972656 L 786.820312 637.972656 L 785.542969 638.226562 L 784.265625 638.484375 L 783.246094 638.992188 L 781.714844 638.992188 L 780.691406 639.503906 L 779.160156 639.503906 L 778.136719 640.015625 L 776.863281 640.269531 L 775.839844 640.78125 L 774.5625 641.035156 L 773.289062 641.292969 L 770.734375 641.800781 L 769.457031 642.058594 L 768.4375 642.566406 L 767.414062 643.078125 L 765.882812 643.078125 L 764.863281 643.589844 L 762.308594 644.097656 L 761.289062 644.609375 L 760.011719 644.867188 L 758.734375 645.121094 L 757.714844 645.632812 L 756.691406 646.140625 L 755.414062 646.398438 L 754.140625 646.652344 L 753.117188 647.164062 L 751.839844 647.417969 L 750.820312 647.929688 L 749.542969 648.183594 L 748.523438 648.695312 L 746.992188 648.695312 L 745.96875 649.207031 L 744.949219 649.714844 L 743.925781 650.226562 L 742.394531 650.226562 L 741.375 650.738281 L 740.351562 651.25 L 739.332031 651.757812 L 737.800781 651.757812 L 736.777344 652.269531 L 735.757812 652.78125 L 734.734375 653.289062 L 733.457031 653.546875 L 732.183594 653.800781 L 731.160156 654.3125 L 730.140625 654.824219 L 727.585938 655.332031 L 726.566406 655.84375 L 725.542969 656.355469 L 724.269531 656.609375 L 722.992188 656.863281 L 721.96875 657.375 L 720.691406 657.632812 L 719.671875 658.140625 L 718.394531 658.398438 L 717.375 658.90625 L 715.84375 658.90625 L 714.820312 659.417969 L 713.800781 659.929688 L 712.777344 660.441406 L 711.503906 660.695312 L 710.226562 660.949219 L 708.949219 661.207031 L 707.925781 661.714844 L 706.652344 661.972656 L 705.628906 662.480469 L 704.609375 662.992188 L 703.078125 662.992188 L 702.054688 663.503906 L 701.035156 664.015625 L 699.503906 664.015625 L 698.480469 664.523438 L 697.460938 665.035156 L 696.183594 665.289062 L 694.90625 665.546875 L 693.628906 665.800781 L 692.355469 666.054688 L 691.332031 666.566406 L 690.3125 667.078125 L 688.777344 667.078125 L 687.757812 667.589844 L 686.226562 667.589844 L 685.203125 668.097656 L 684.183594 668.609375 L 682.652344 668.609375 L 681.628906 669.121094 L 680.097656 669.121094 L 679.078125 669.628906 L 677.546875 669.628906 L 676.269531 669.886719 L 674.992188 670.140625 L 673.972656 670.652344 L 672.4375 670.652344 L 671.417969 671.164062 L 668.355469 671.164062 L 665.800781 671.671875 L 664.523438 671.929688 L 663.246094 672.183594 L 661.714844 672.183594 L 660.695312 672.695312 L 639.25 672.695312 L 637.972656 672.4375 L 635.417969 671.929688 L 634.140625 671.671875 L 633.121094 671.164062 L 631.589844 671.164062 L 630.566406 670.652344 L 629.035156 670.652344 L 628.015625 670.140625 L 626.992188 669.628906 L 625.972656 669.121094 L 624.441406 669.121094 L 623.675781 668.355469 L 622.652344 667.84375 L 621.375 667.589844 L 620.355469 667.078125 L 619.589844 666.3125 L 618.566406 665.800781 L 617.546875 665.289062 L 616.78125 664.523438 L 615.761719 664.015625 L 614.226562 662.480469 L 613.207031 661.972656 L 612.695312 660.949219 L 611.675781 660.441406 L 611.164062 659.417969 L 610.652344 658.398438 L 609.886719 657.632812 L 609.378906 656.609375 L 608.867188 655.589844 L 608.355469 654.566406 L 607.84375 653.546875 L 607.335938 650.992188 L 607.335938 644.867188 L 606.824219 643.84375 L 607.335938 642.824219 L 607.335938 641.292969 L 607.84375 638.738281 L 608.355469 637.714844 L 608.867188 636.695312 L 609.121094 635.417969 L 609.378906 634.140625 L 609.886719 633.121094 L 610.398438 632.101562 L 610.910156 631.078125 L 611.417969 630.058594 L 611.675781 628.78125 L 612.441406 628.015625 L 612.953125 626.992188 L 613.460938 625.972656 L 614.226562 625.207031 L 614.738281 624.183594 L 615.25 623.164062 L 616.015625 622.398438 L 616.527344 621.375 L 617.035156 620.355469 L 617.546875 619.335938 L 618.3125 618.566406 L 619.078125 617.800781 L 619.589844 616.78125 L 621.886719 614.484375 L 622.398438 613.460938 L 623.164062 612.695312 L 623.675781 611.675781 L 625.972656 609.378906 L 626.738281 608.609375 L 631.332031 604.015625 L 632.101562 603.25 L 634.398438 600.953125 L 635.417969 600.441406 L 637.714844 598.144531 L 638.738281 597.632812 L 640.269531 596.101562 L 641.292969 595.589844 L 642.058594 594.824219 L 643.078125 594.3125 L 643.84375 593.546875 L 644.867188 593.035156 L 645.886719 592.527344 L 646.90625 592.015625 L 647.675781 591.25 L 648.695312 590.738281 L 649.460938 589.972656 L 650.480469 589.460938 L 651.503906 588.953125 L 652.523438 588.441406 L 653.800781 588.1875 L 654.566406 587.421875 L 655.589844 586.910156 L 656.609375 586.398438 L 657.632812 585.886719 L 658.652344 585.378906 L 659.929688 585.121094 L 661.207031 584.867188 L 661.972656 584.101562 L 663.246094 583.847656 L 664.269531 583.335938 L 665.546875 583.078125 L 666.566406 582.570312 L 667.589844 582.058594 L 668.863281 581.804688 L 669.886719 581.292969 L 671.164062 581.039062 L 672.183594 580.527344 L 673.207031 580.015625 L 674.480469 579.761719 L 675.757812 579.503906 L 677.035156 579.25 L 678.054688 578.738281 L 679.589844 578.738281 L 680.609375 578.230469 L 682.140625 578.230469 L 683.164062 577.71875 L 684.695312 577.71875 L 685.714844 577.207031 L 686.992188 576.953125 L 688.269531 576.695312 L 691.332031 576.695312 L 692.355469 576.1875 L 715.332031 576.1875 L 716.351562 576.695312 L 719.417969 576.695312 L 720.4375 577.207031 L 721.96875 577.207031 L 722.992188 577.71875 L 726.054688 577.71875 L 727.074219 578.230469 L 728.609375 578.230469 L 729.882812 578.484375 L 731.160156 578.738281 L 732.183594 579.25 L 733.457031 579.503906 L 734.734375 579.761719 L 736.265625 579.761719 L 737.289062 580.269531 L 738.566406 580.527344 L 739.585938 581.039062 L 740.863281 581.292969 L 741.882812 581.804688 L 743.417969 581.804688 L 744.4375 582.3125 L 745.457031 582.824219 L 746.480469 583.335938 L 748.011719 583.335938 L 749.03125 583.847656 L 750.308594 584.101562 L 751.074219 584.867188 L 752.605469 584.867188 L 753.628906 585.378906 L 754.648438 585.886719 L 755.671875 586.398438 L 756.691406 586.910156 L 758.222656 586.910156 L 759.246094 587.421875 L 760.265625 587.929688 L 761.289062 588.441406 L 762.566406 588.695312 L 763.839844 588.953125 L 764.605469 589.71875 L 765.882812 589.972656 L 766.90625 590.484375 L 767.925781 590.996094 L 768.949219 591.503906 L 770.988281 592.527344 L 772.011719 593.035156 L 773.03125 593.546875 L 774.308594 593.804688 L 775.332031 594.3125 L 776.351562 594.824219 L 777.117188 595.589844 L 778.394531 595.84375 L 779.414062 596.355469 L 780.179688 597.121094 L 781.457031 597.378906 L 782.480469 597.886719 L 783.246094 598.652344 L 784.265625 599.164062 L 785.542969 599.417969 L 786.308594 600.1875 L 787.328125 600.695312 L 788.351562 601.207031 L 789.628906 601.460938 L 790.394531 602.226562 L 791.414062 602.738281 L 792.4375 603.25 L 793.457031 603.761719 L 794.480469 604.269531 L 796.519531 605.292969 L 797.542969 605.800781 L 798.5625 606.3125 L 799.585938 606.824219 L 800.351562 607.589844 L 801.628906 607.84375 L 802.648438 608.355469 L 803.414062 609.121094 L 804.691406 609.378906 L 805.710938 609.886719 L 806.476562 610.652344 L 807.5 611.164062 L 808.777344 611.417969 L 809.796875 611.929688 L 810.820312 612.441406 L 811.839844 612.953125 L 812.859375 613.460938 L 813.882812 613.972656 L 814.902344 614.484375 L 815.925781 614.992188 L 816.945312 615.503906 L 817.710938 616.269531 L 818.988281 616.527344 L 820.011719 617.035156 L 822.050781 618.058594 L 823.074219 618.566406 L 824.351562 618.824219 L 825.371094 619.335938 L 826.394531 619.84375 L 827.667969 620.101562 L 828.433594 620.867188 L 829.457031 621.375 L 830.734375 621.632812 L 831.753906 622.144531 L 833.03125 622.398438 L 833.796875 623.164062 L 835.074219 623.417969 L 836.351562 623.675781 L 837.371094 624.183594 L 838.390625 624.695312 L 839.414062 625.207031 L 840.945312 625.207031 L 841.964844 625.71875 L 842.988281 626.226562 L 844.007812 626.738281 L 845.285156 626.992188 L 846.5625 627.25 L 847.839844 627.503906 L 848.859375 628.015625 L 850.136719 628.269531 L 851.15625 628.78125 L 852.691406 628.78125 L 853.964844 629.035156 L 855.242188 629.292969 L 856.265625 629.800781 L 857.285156 630.3125 L 860.347656 630.3125 L 861.371094 630.824219 L 864.433594 630.824219 L 865.457031 631.332031 L 866.988281 631.332031 L 868.007812 631.84375 L 871.074219 631.84375 L 872.09375 632.355469 L 882.816406 632.355469 L 883.839844 631.84375 L 888.433594 631.84375 L 889.453125 631.332031 L 890.988281 631.332031 L 892.007812 630.824219 L 895.070312 630.824219 L 896.09375 630.3125 L 900.6875 630.3125 L 901.710938 629.800781 L 903.242188 629.800781 L 904.261719 629.292969 L 907.328125 629.292969 L 908.347656 628.78125 L 909.113281 629.035156 L 910.390625 628.78125 L 922.644531 628.78125 L 923.921875 629.035156 L 925.199219 629.292969 L 926.21875 629.800781 L 927.242188 630.3125 L 928.773438 630.3125 L 929.792969 630.824219 L 931.070312 631.078125 L 932.09375 631.589844 L 933.113281 632.101562 L 934.390625 632.355469 L 935.410156 632.867188 L 936.433594 633.375 L 937.453125 633.886719 L 938.476562 634.398438 L 939.242188 635.164062 L 940.261719 635.675781 L 941.285156 636.183594 L 942.050781 636.949219 L 944.089844 637.972656 L 944.859375 638.738281 L 945.625 639.503906 L 946.644531 640.015625 L 947.15625 641.035156 L 948.175781 641.546875 L 950.472656 643.84375 L 951.242188 644.609375 L 953.539062 646.90625 L 954.050781 647.929688 L 955.582031 649.460938 L 956.089844 650.480469 L 956.855469 651.25 L 957.625 652.015625 L 958.132812 653.035156 L 959.15625 653.546875 L 959.664062 654.566406 L 960.433594 655.332031 L 961.199219 656.097656 L 961.707031 657.121094 L 962.21875 658.140625 L 962.984375 658.90625 L 963.496094 659.929688 L 964.007812 660.949219 L 964.773438 661.714844 L 965.28125 662.738281 L 965.792969 663.757812 L 966.558594 664.523438 L 967.070312 665.546875 L 967.582031 666.566406 L 968.347656 667.332031 L 968.855469 668.355469 L 969.113281 669.628906 L 969.878906 670.398438 L 970.390625 671.417969 L 970.898438 672.4375 L 970.898438 673.972656 L 971.664062 674.738281 L 972.175781 675.757812 L 972.429688 677.035156 L 972.941406 678.054688 L 973.453125 679.078125 L 973.964844 680.097656 L 974.472656 682.652344 L 974.984375 683.671875 L 975.496094 684.695312 L 976.003906 685.714844 L 976.003906 688.777344 L 976.515625 689.800781 L 977.027344 690.820312 L 977.027344 692.355469 L 977.539062 693.375 L 977.539062 701.035156 L 977.28125 702.3125 L 976.773438 703.332031 L 976.515625 704.609375 L 976.003906 705.628906 L 975.75 706.90625 L 975.238281 707.925781 L 974.472656 708.695312 L 973.964844 709.714844 L 973.453125 710.734375 L 972.6875 711.503906 L 970.390625 713.800781 L 969.621094 714.566406 L 968.347656 714.820312 L 967.070312 715.078125 L 966.046875 715.585938 Z M 965.027344 716.097656 " fill-opacity="1" fill-rule="nonzero"/><path fill="#000000" d="M 840.945312 767.671875 L 831.753906 767.671875 L 830.476562 767.414062 L 829.199219 767.160156 L 824.605469 767.160156 L 823.328125 766.90625 L 822.050781 766.648438 L 821.03125 766.140625 L 819.5 766.140625 L 818.476562 765.628906 L 816.945312 765.628906 L 815.667969 765.371094 L 814.394531 765.117188 L 813.371094 764.605469 L 812.351562 764.097656 L 810.820312 764.097656 L 809.796875 763.585938 L 808.519531 763.332031 L 807.5 762.820312 L 806.222656 762.566406 L 805.203125 762.054688 L 803.925781 761.796875 L 802.902344 761.289062 L 801.882812 760.777344 L 800.605469 760.523438 L 799.328125 760.265625 L 798.054688 760.011719 L 797.285156 759.246094 L 796.519531 758.480469 L 794.988281 758.480469 L 794.222656 757.714844 L 793.203125 757.203125 L 791.925781 756.949219 L 790.902344 756.4375 L 788.863281 755.414062 L 787.839844 754.90625 L 786.820312 754.394531 L 786.054688 753.628906 L 785.03125 753.117188 L 784.011719 752.605469 L 782.988281 752.097656 L 781.96875 751.585938 L 780.945312 751.074219 L 780.179688 750.308594 L 779.160156 749.800781 L 778.136719 749.289062 L 776.097656 748.265625 L 775.074219 747.757812 L 774.308594 746.992188 L 773.542969 746.222656 L 772.523438 745.714844 L 771.5 745.203125 L 770.480469 744.691406 L 768.949219 743.160156 L 767.925781 742.648438 L 766.90625 742.140625 L 766.140625 741.375 L 765.117188 740.863281 L 764.097656 740.351562 L 763.332031 739.585938 L 762.308594 739.074219 L 761.542969 738.308594 L 760.523438 737.800781 L 759.5 737.289062 L 758.734375 736.523438 L 757.714844 736.011719 L 756.691406 735.5 L 755.671875 734.992188 L 754.90625 734.226562 L 753.882812 733.714844 L 753.117188 732.949219 L 752.097656 732.4375 L 750.820312 732.183594 L 750.054688 731.417969 L 749.03125 730.90625 L 746.992188 729.882812 L 745.96875 729.375 L 744.949219 728.863281 L 743.925781 728.351562 L 742.90625 727.84375 L 741.882812 727.332031 L 740.863281 726.820312 L 739.839844 726.308594 L 739.074219 725.542969 L 737.800781 725.289062 L 736.777344 724.777344 L 735.757812 724.269531 L 734.734375 723.757812 L 733.714844 723.246094 L 732.691406 722.734375 L 731.671875 722.226562 L 730.652344 721.714844 L 729.117188 721.714844 L 728.097656 721.203125 L 727.074219 720.691406 L 726.054688 720.183594 L 725.035156 719.671875 L 723.757812 719.417969 L 722.992188 718.652344 L 721.460938 718.652344 L 720.4375 718.140625 L 719.417969 717.628906 L 718.140625 717.375 L 717.117188 716.863281 L 715.84375 716.609375 L 714.820312 716.097656 L 713.289062 716.097656 L 712.269531 715.585938 L 711.246094 715.078125 L 709.96875 714.820312 L 708.695312 714.566406 L 707.417969 714.308594 L 706.394531 713.800781 L 705.121094 713.542969 L 704.097656 713.035156 L 702.566406 713.035156 L 701.542969 712.523438 L 700.011719 712.523438 L 698.992188 712.011719 L 697.96875 711.503906 L 696.4375 711.503906 L 695.160156 711.246094 L 693.886719 710.992188 L 692.355469 710.992188 L 691.078125 710.734375 L 689.800781 710.480469 L 688.777344 709.96875 L 687.246094 709.96875 L 685.972656 709.714844 L 684.695312 709.460938 L 681.628906 709.460938 L 680.355469 709.203125 L 679.078125 708.949219 L 676.011719 708.949219 L 674.992188 708.4375 L 673.460938 708.4375 L 672.183594 708.183594 L 670.90625 707.925781 L 657.121094 707.925781 L 656.097656 708.4375 L 653.035156 708.4375 L 652.015625 708.949219 L 648.949219 708.949219 L 647.675781 709.203125 L 646.398438 709.460938 L 643.332031 709.460938 L 642.3125 709.96875 L 640.78125 709.96875 L 639.757812 710.480469 L 638.226562 710.480469 L 637.207031 710.992188 L 635.675781 710.992188 L 634.652344 711.503906 L 633.121094 711.503906 L 632.101562 712.011719 L 630.566406 712.011719 L 628.527344 713.035156 L 626.992188 713.035156 L 625.972656 713.542969 L 624.695312 713.800781 L 623.675781 714.308594 L 622.398438 714.566406 L 621.375 715.078125 L 620.101562 715.332031 L 619.078125 715.84375 L 617.800781 716.097656 L 616.78125 716.609375 L 615.503906 716.863281 L 614.484375 717.375 L 613.460938 717.886719 L 612.183594 718.140625 L 611.164062 718.652344 L 610.144531 719.160156 L 609.121094 719.671875 L 608.101562 720.183594 L 606.824219 720.4375 L 606.058594 721.203125 L 605.035156 721.714844 L 603.761719 721.96875 L 602.738281 722.480469 L 601.71875 722.992188 L 600.695312 723.5 L 599.675781 724.011719 L 598.910156 724.777344 L 597.886719 725.289062 L 596.867188 725.800781 L 595.84375 726.308594 L 594.824219 726.820312 L 594.058594 727.585938 L 593.035156 728.097656 L 592.269531 728.863281 L 591.25 729.375 L 590.484375 730.140625 L 589.460938 730.652344 L 588.695312 731.417969 L 587.675781 731.925781 L 586.652344 732.4375 L 585.121094 733.96875 L 584.101562 734.480469 L 583.335938 735.246094 L 582.3125 735.757812 L 581.546875 736.523438 L 580.527344 737.035156 L 579.503906 737.542969 L 577.972656 739.074219 L 576.953125 739.585938 L 575.929688 740.097656 L 574.910156 740.609375 L 574.144531 741.375 L 573.121094 741.882812 L 572.355469 742.648438 L 571.335938 743.160156 L 570.3125 743.671875 L 569.546875 744.4375 L 568.527344 744.949219 L 567.503906 745.457031 L 566.738281 746.222656 L 564.699219 747.246094 L 563.675781 747.757812 L 562.65625 748.265625 L 561.890625 749.03125 L 560.867188 749.542969 L 559.847656 750.054688 L 558.824219 750.566406 L 557.804688 751.074219 L 556.78125 751.585938 L 555.761719 752.097656 L 554.996094 752.863281 L 553.972656 753.375 L 552.699219 753.628906 L 551.675781 754.140625 L 550.65625 754.648438 L 549.378906 754.90625 L 548.355469 755.414062 L 547.082031 755.671875 L 546.058594 756.183594 L 544.78125 756.4375 L 543.761719 756.949219 L 542.230469 756.949219 L 541.207031 757.457031 L 540.1875 757.96875 L 538.65625 757.96875 L 537.632812 758.480469 L 525.378906 758.480469 L 524.359375 757.96875 L 522.824219 757.96875 L 521.804688 757.457031 L 519.25 756.949219 L 518.230469 756.4375 L 516.953125 756.183594 L 516.1875 755.414062 L 514.910156 755.160156 L 513.636719 754.90625 L 512.867188 754.140625 L 512.101562 753.375 L 511.082031 752.863281 L 510.316406 752.097656 L 509.292969 751.585938 L 507.761719 750.054688 L 506.742188 749.542969 L 505.976562 748.777344 L 505.464844 747.757812 L 504.699219 746.992188 L 503.933594 746.222656 L 503.421875 745.203125 L 501.890625 743.671875 L 501.636719 742.394531 L 500.871094 741.628906 L 500.101562 740.863281 L 500.101562 739.332031 L 499.59375 738.308594 L 498.828125 737.542969 L 498.316406 736.523438 L 498.0625 735.246094 L 498.0625 733.714844 L 497.550781 732.691406 L 497.292969 731.417969 L 497.039062 730.140625 L 496.527344 729.117188 L 496.527344 724.523438 L 496.785156 723.246094 L 497.292969 720.691406 L 497.550781 719.417969 L 498.0625 718.394531 L 498.0625 716.863281 L 498.570312 714.308594 L 499.59375 712.269531 L 500.101562 711.246094 L 500.359375 709.96875 L 501.125 709.203125 L 501.636719 708.183594 L 502.144531 707.160156 L 503.167969 705.121094 L 503.675781 704.097656 L 504.445312 703.332031 L 505.210938 702.566406 L 505.71875 701.542969 L 506.484375 700.777344 L 506.996094 699.757812 L 508.527344 698.226562 L 509.039062 697.203125 L 510.058594 696.695312 L 510.570312 695.671875 L 511.59375 695.160156 L 512.101562 694.140625 L 512.867188 693.375 L 513.636719 692.609375 L 514.402344 691.84375 L 515.421875 691.332031 L 517.71875 689.035156 L 518.742188 688.523438 L 520.273438 686.992188 L 521.292969 686.480469 L 522.316406 685.972656 L 523.082031 685.203125 L 524.359375 684.949219 L 525.890625 683.417969 L 526.910156 682.90625 L 527.933594 682.394531 L 528.953125 681.886719 L 529.976562 681.375 L 530.996094 680.863281 L 532.273438 680.609375 L 533.292969 680.097656 L 534.570312 679.84375 L 535.589844 679.332031 L 537.125 679.332031 L 538.144531 678.820312 L 539.167969 678.3125 L 540.699219 678.3125 L 541.71875 677.800781 L 555.507812 677.800781 L 556.527344 678.3125 L 558.058594 678.3125 L 560.613281 678.820312 L 561.632812 679.332031 L 563.164062 679.332031 L 564.1875 679.84375 L 565.71875 679.84375 L 566.738281 680.355469 L 567.761719 680.863281 L 568.78125 681.375 L 570.3125 681.375 L 571.335938 681.886719 L 572.355469 682.394531 L 573.378906 682.90625 L 574.65625 683.164062 L 575.929688 683.417969 L 576.953125 683.929688 L 577.972656 684.4375 L 578.996094 684.949219 L 580.269531 685.203125 L 581.292969 685.714844 L 582.3125 686.226562 L 583.589844 686.480469 L 584.613281 686.992188 L 585.632812 687.503906 L 586.652344 688.011719 L 587.675781 688.523438 L 588.695312 689.035156 L 589.71875 689.546875 L 590.738281 690.054688 L 592.269531 690.054688 L 593.035156 690.820312 L 594.058594 691.332031 L 595.335938 691.585938 L 596.355469 692.097656 L 597.378906 692.609375 L 598.398438 693.121094 L 599.417969 693.628906 L 600.695312 693.886719 L 601.71875 694.394531 L 602.484375 695.160156 L 604.015625 695.160156 L 605.035156 695.671875 L 606.058594 696.183594 L 607.078125 696.695312 L 608.101562 697.203125 L 609.632812 697.203125 L 610.652344 697.714844 L 611.675781 698.226562 L 612.695312 698.738281 L 614.226562 698.738281 L 615.25 699.246094 L 616.269531 699.757812 L 617.292969 700.269531 L 618.824219 700.269531 L 620.101562 700.523438 L 621.375 700.777344 L 622.910156 700.777344 L 623.929688 701.289062 L 625.460938 701.289062 L 626.484375 701.800781 L 627.757812 702.054688 L 629.035156 702.3125 L 633.632812 702.3125 L 634.910156 702.566406 L 636.183594 702.820312 L 649.972656 702.820312 L 651.25 702.566406 L 652.523438 702.3125 L 658.652344 702.3125 L 659.671875 701.800781 L 661.207031 701.800781 L 662.480469 701.542969 L 663.757812 701.289062 L 664.78125 700.777344 L 666.3125 700.777344 L 667.589844 700.523438 L 668.863281 700.269531 L 670.398438 700.269531 L 672.4375 699.246094 L 674.992188 698.738281 L 676.523438 698.738281 L 677.546875 698.226562 L 678.566406 697.714844 L 679.84375 697.460938 L 681.121094 697.203125 L 682.394531 696.949219 L 683.671875 696.695312 L 684.695312 696.183594 L 685.714844 695.671875 L 686.992188 695.417969 L 688.269531 695.160156 L 689.289062 694.652344 L 690.566406 694.394531 L 691.585938 693.886719 L 692.863281 693.628906 L 693.886719 693.121094 L 695.160156 692.863281 L 696.183594 692.355469 L 697.460938 692.097656 L 698.480469 691.585938 L 699.757812 691.332031 L 700.777344 690.820312 L 701.800781 690.3125 L 703.078125 690.054688 L 704.097656 689.546875 L 705.121094 689.035156 L 706.394531 688.777344 L 707.417969 688.269531 L 708.695312 688.011719 L 709.714844 687.503906 L 710.734375 686.992188 L 711.757812 686.480469 L 713.035156 686.226562 L 714.054688 685.714844 L 715.078125 685.203125 L 716.351562 684.949219 L 717.375 684.4375 L 718.652344 684.183594 L 719.417969 683.417969 L 720.691406 683.164062 L 721.96875 682.90625 L 722.992188 682.394531 L 724.011719 681.886719 L 725.035156 681.375 L 726.308594 681.121094 L 727.585938 680.863281 L 728.351562 680.097656 L 729.628906 679.84375 L 730.652344 679.332031 L 731.925781 679.078125 L 732.691406 678.3125 L 733.96875 678.054688 L 735.246094 677.800781 L 736.265625 677.289062 L 737.289062 676.78125 L 738.308594 676.269531 L 739.585938 676.011719 L 740.609375 675.503906 L 741.628906 674.992188 L 742.90625 674.738281 L 743.925781 674.226562 L 744.949219 673.714844 L 745.96875 673.207031 L 747.246094 672.949219 L 748.523438 672.695312 L 749.542969 672.183594 L 750.566406 671.671875 L 751.585938 671.164062 L 753.117188 671.164062 L 754.140625 670.652344 L 755.160156 670.140625 L 756.4375 669.886719 L 757.457031 669.375 L 758.734375 669.121094 L 759.757812 668.609375 L 761.03125 668.355469 L 762.054688 667.84375 L 763.332031 667.589844 L 764.351562 667.078125 L 765.882812 667.078125 L 766.90625 666.566406 L 767.925781 666.054688 L 768.949219 665.546875 L 770.480469 665.546875 L 771.5 665.035156 L 772.777344 664.78125 L 773.796875 664.269531 L 775.074219 664.015625 L 776.097656 663.503906 L 777.628906 663.503906 L 778.648438 662.992188 L 779.671875 662.480469 L 780.945312 662.226562 L 782.222656 661.972656 L 783.5 661.714844 L 784.777344 661.460938 L 785.796875 660.949219 L 788.351562 660.441406 L 789.371094 659.929688 L 790.902344 659.929688 L 791.925781 659.417969 L 793.203125 659.164062 L 794.480469 658.90625 L 795.5 658.398438 L 798.5625 658.398438 L 799.585938 657.886719 L 801.117188 657.886719 L 802.136719 657.375 L 803.414062 657.121094 L 804.691406 656.863281 L 806.222656 656.863281 L 808.777344 656.355469 L 810.050781 656.097656 L 812.605469 655.589844 L 813.882812 655.332031 L 816.945312 655.332031 L 818.476562 654.824219 L 824.605469 654.824219 L 825.625 654.3125 L 834.816406 654.3125 L 835.839844 654.824219 L 845.03125 654.824219 L 846.050781 655.332031 L 847.582031 655.332031 L 848.859375 655.589844 L 851.414062 656.097656 L 852.691406 656.355469 L 853.710938 656.863281 L 855.242188 656.863281 L 856.519531 657.121094 L 857.539062 657.632812 L 858.5625 658.140625 L 859.839844 658.398438 L 861.113281 658.652344 L 862.390625 658.90625 L 863.15625 659.671875 L 864.433594 659.929688 L 865.457031 660.441406 L 866.730469 660.695312 L 867.496094 661.460938 L 868.519531 661.972656 L 869.796875 662.226562 L 870.816406 662.738281 L 871.582031 663.503906 L 872.605469 664.015625 L 873.625 664.523438 L 874.390625 665.289062 L 875.414062 665.800781 L 876.179688 666.566406 L 877.199219 667.078125 L 878.730469 668.609375 L 879.753906 669.121094 L 885.113281 674.480469 L 885.625 675.503906 L 886.390625 676.269531 L 886.902344 677.289062 L 888.433594 678.820312 L 888.945312 679.84375 L 889.453125 680.863281 L 890.222656 681.628906 L 890.730469 682.652344 L 891.496094 683.417969 L 892.007812 684.4375 L 892.261719 685.714844 L 892.773438 686.738281 L 893.539062 687.503906 L 893.796875 688.777344 L 894.304688 689.800781 L 894.5625 691.078125 L 895.328125 691.84375 L 895.835938 692.863281 L 895.835938 695.929688 L 896.859375 697.96875 L 897.371094 698.992188 L 897.371094 702.054688 L 897.878906 703.078125 L 897.878906 716.863281 L 897.371094 717.886719 L 897.371094 720.949219 L 896.859375 721.96875 L 896.347656 722.992188 L 896.09375 724.269531 L 895.835938 725.542969 L 895.835938 727.074219 L 895.328125 728.097656 L 894.816406 729.117188 L 894.304688 730.140625 L 894.050781 731.417969 L 893.539062 732.4375 L 893.285156 733.714844 L 892.773438 734.734375 L 892.261719 735.757812 L 891.753906 736.777344 L 891.242188 737.800781 L 890.476562 738.566406 L 889.964844 739.585938 L 889.453125 740.609375 L 888.6875 741.375 L 888.179688 742.394531 L 887.414062 743.160156 L 886.902344 744.183594 L 886.136719 744.949219 L 885.625 745.96875 L 883.328125 748.265625 L 882.816406 749.289062 L 881.796875 749.800781 L 881.03125 750.566406 L 880.519531 751.585938 L 879.496094 752.097656 L 877.199219 754.394531 L 876.179688 754.90625 L 874.648438 756.4375 L 873.625 756.949219 L 872.605469 757.457031 L 871.074219 758.988281 L 869.796875 759.246094 L 869.03125 760.011719 L 868.007812 760.523438 L 866.730469 760.777344 L 865.710938 761.289062 L 864.691406 761.796875 L 863.667969 762.308594 L 862.648438 762.820312 L 861.625 763.332031 L 860.347656 763.585938 L 859.328125 764.097656 L 857.796875 764.097656 L 856.773438 764.605469 L 855.753906 765.117188 L 854.476562 765.371094 L 853.199219 765.628906 L 851.667969 765.628906 L 850.648438 766.140625 L 849.117188 766.140625 L 848.09375 766.648438 L 847.074219 767.160156 L 842.476562 767.160156 L 841.199219 767.414062 Z M 840.945312 767.671875 " fill-opacity="1" fill-rule="nonzero"/><path fill="#000000" d="M 655.589844 839.160156 L 634.140625 839.160156 L 633.121094 838.648438 L 630.058594 838.648438 L 629.035156 838.136719 L 627.757812 837.882812 L 626.484375 837.625 L 624.949219 837.625 L 623.929688 837.117188 L 622.398438 837.117188 L 621.375 836.605469 L 620.355469 836.09375 L 618.824219 836.09375 L 617.800781 835.582031 L 616.269531 835.582031 L 615.25 835.074219 L 614.226562 834.5625 L 613.207031 834.050781 L 612.183594 833.542969 L 610.144531 832.519531 L 609.121094 832.007812 L 607.84375 831.753906 L 607.078125 830.988281 L 606.058594 830.476562 L 605.035156 829.96875 L 604.015625 829.457031 L 603.25 828.691406 L 602.226562 828.179688 L 601.460938 827.414062 L 600.441406 826.902344 L 599.417969 826.394531 L 598.652344 825.625 L 596.355469 823.328125 L 595.335938 822.816406 L 594.824219 821.796875 L 593.804688 821.285156 L 593.035156 820.519531 L 592.527344 819.5 L 590.996094 817.96875 L 590.484375 816.945312 L 589.71875 816.179688 L 589.207031 815.160156 L 588.441406 814.394531 L 587.929688 813.371094 L 587.421875 812.351562 L 586.910156 811.328125 L 586.144531 810.5625 L 585.632812 809.542969 L 585.378906 808.265625 L 583.847656 806.734375 L 583.847656 805.203125 L 583.335938 804.179688 L 582.824219 803.160156 L 582.3125 802.136719 L 582.058594 800.863281 L 581.804688 799.585938 L 581.292969 798.5625 L 580.78125 797.542969 L 580.269531 796.519531 L 580.269531 793.457031 L 579.761719 790.902344 L 579.761719 787.839844 L 579.25 786.820312 L 579.25 782.222656 L 579.503906 780.945312 L 579.761719 779.671875 L 579.761719 776.605469 L 580.015625 775.332031 L 580.269531 774.054688 L 580.269531 772.523438 L 580.78125 771.5 L 580.78125 769.96875 L 581.292969 768.949219 L 581.804688 767.925781 L 582.3125 765.371094 L 583.335938 763.332031 L 583.589844 762.054688 L 584.101562 761.03125 L 584.613281 760.011719 L 585.121094 758.988281 L 586.144531 756.949219 L 586.652344 755.925781 L 587.164062 754.90625 L 587.929688 754.140625 L 588.441406 753.117188 L 588.953125 752.097656 L 589.460938 751.074219 L 590.230469 750.308594 L 590.996094 749.542969 L 591.503906 748.523438 L 593.035156 746.992188 L 593.546875 745.96875 L 595.84375 743.671875 L 596.613281 742.90625 L 598.144531 741.375 L 599.164062 740.863281 L 600.695312 739.332031 L 601.71875 738.820312 L 602.484375 738.054688 L 603.503906 737.542969 L 604.527344 737.035156 L 605.292969 736.265625 L 606.3125 735.757812 L 607.335938 735.246094 L 608.355469 734.734375 L 609.378906 734.226562 L 610.398438 733.714844 L 611.675781 733.457031 L 612.441406 732.691406 L 613.460938 732.183594 L 614.738281 731.925781 L 615.761719 731.417969 L 617.800781 730.394531 L 619.335938 730.394531 L 620.355469 729.882812 L 621.632812 729.628906 L 622.652344 729.117188 L 623.929688 728.863281 L 625.460938 728.863281 L 626.484375 728.351562 L 628.015625 728.351562 L 629.292969 728.097656 L 630.566406 727.84375 L 632.101562 727.84375 L 633.121094 727.332031 L 648.441406 727.332031 L 649.460938 727.84375 L 652.015625 728.351562 L 655.078125 728.351562 L 656.097656 728.863281 L 657.632812 728.863281 L 658.90625 729.117188 L 659.929688 729.628906 L 661.207031 729.882812 L 662.226562 730.394531 L 663.757812 730.394531 L 664.78125 730.90625 L 666.054688 731.160156 L 667.078125 731.671875 L 668.355469 731.925781 L 669.375 732.4375 L 670.90625 732.4375 L 671.929688 732.949219 L 672.949219 733.457031 L 673.972656 733.96875 L 675.246094 734.226562 L 676.269531 734.734375 L 677.035156 735.5 L 678.3125 735.757812 L 679.589844 736.011719 L 680.355469 736.777344 L 681.375 737.289062 L 682.652344 737.542969 L 683.671875 738.054688 L 684.695312 738.566406 L 685.714844 739.074219 L 686.738281 739.585938 L 688.777344 740.609375 L 689.800781 741.117188 L 690.820312 741.628906 L 691.585938 742.394531 L 692.863281 742.648438 L 693.628906 743.417969 L 694.394531 744.183594 L 695.671875 744.4375 L 696.695312 744.949219 L 697.460938 745.714844 L 698.480469 746.222656 L 699.503906 746.734375 L 700.269531 747.5 L 701.542969 747.757812 L 702.3125 748.523438 L 703.078125 749.289062 L 704.097656 749.800781 L 704.863281 750.566406 L 705.886719 751.074219 L 706.90625 751.585938 L 707.671875 752.351562 L 708.695312 752.863281 L 709.714844 753.375 L 711.246094 754.90625 L 712.523438 755.160156 L 713.289062 755.925781 L 714.308594 756.4375 L 715.332031 756.949219 L 716.097656 757.714844 L 717.117188 758.222656 L 718.140625 758.734375 L 718.90625 759.5 L 719.925781 760.011719 L 720.949219 760.523438 L 721.714844 761.289062 L 722.734375 761.796875 L 724.011719 762.054688 L 725.542969 763.585938 L 726.820312 763.839844 L 727.84375 764.351562 L 728.609375 765.117188 L 729.628906 765.628906 L 730.652344 766.140625 L 731.671875 766.648438 L 732.691406 767.160156 L 733.714844 767.671875 L 734.734375 768.179688 L 735.757812 768.691406 L 737.035156 768.949219 L 738.054688 769.457031 L 739.074219 769.96875 L 740.097656 770.480469 L 741.375 770.734375 L 742.140625 771.5 L 743.160156 772.011719 L 744.4375 772.265625 L 745.457031 772.777344 L 746.480469 773.289062 L 747.5 773.796875 L 748.777344 774.054688 L 750.054688 774.308594 L 750.820312 775.074219 L 751.839844 775.585938 L 753.117188 775.839844 L 754.394531 776.097656 L 755.414062 776.605469 L 756.4375 777.117188 L 757.714844 777.371094 L 758.734375 777.882812 L 760.265625 777.882812 L 761.289062 778.394531 L 762.308594 778.90625 L 763.332031 779.414062 L 764.863281 779.414062 L 765.882812 779.925781 L 767.414062 779.925781 L 768.4375 780.4375 L 769.457031 780.945312 L 770.988281 780.945312 L 772.011719 781.457031 L 773.542969 781.457031 L 774.5625 781.96875 L 775.585938 782.480469 L 777.117188 782.480469 L 778.136719 782.988281 L 781.203125 782.988281 L 782.222656 783.5 L 783.246094 784.011719 L 784.519531 784.265625 L 785.796875 784.519531 L 788.863281 784.519531 L 789.882812 785.03125 L 794.480469 785.03125 L 795.5 785.542969 L 796.777344 785.796875 L 797.542969 785.542969 L 798.5625 786.054688 L 804.691406 786.054688 L 807.246094 786.5625 L 808.011719 786.308594 L 809.285156 786.5625 L 810.308594 786.054688 L 811.328125 786.5625 L 812.351562 786.054688 L 813.371094 786.5625 L 817.96875 786.5625 L 819.242188 786.308594 L 820.519531 786.054688 L 825.117188 786.054688 L 826.394531 785.796875 L 827.667969 785.542969 L 828.945312 785.289062 L 830.222656 785.03125 L 831.753906 785.03125 L 832.777344 784.519531 L 835.839844 784.519531 L 837.117188 784.265625 L 838.390625 784.011719 L 839.414062 783.5 L 840.945312 783.5 L 841.964844 782.988281 L 843.5 782.988281 L 844.519531 782.480469 L 846.050781 782.480469 L 847.074219 781.96875 L 848.09375 781.457031 L 849.371094 781.203125 L 850.648438 780.945312 L 851.667969 780.4375 L 852.691406 779.925781 L 854.222656 779.925781 L 855.242188 779.414062 L 856.519531 779.160156 L 857.539062 778.648438 L 858.816406 778.394531 L 859.839844 777.882812 L 860.859375 777.371094 L 863.414062 776.863281 L 864.433594 776.351562 L 865.457031 775.839844 L 866.476562 775.332031 L 867.496094 774.820312 L 868.519531 774.308594 L 869.539062 773.796875 L 870.816406 773.542969 L 871.839844 773.03125 L 872.859375 772.523438 L 874.136719 772.265625 L 874.902344 771.5 L 875.921875 770.988281 L 876.945312 770.480469 L 877.964844 769.96875 L 878.730469 769.203125 L 879.753906 768.691406 L 881.03125 768.4375 L 881.796875 767.671875 L 882.816406 767.160156 L 883.839844 766.648438 L 885.371094 765.117188 L 886.390625 764.605469 L 887.15625 763.839844 L 888.179688 763.332031 L 889.199219 762.820312 L 889.964844 762.054688 L 890.988281 761.542969 L 891.753906 760.777344 L 892.773438 760.265625 L 893.796875 759.757812 L 894.816406 759.246094 L 895.582031 758.480469 L 896.605469 757.96875 L 897.371094 757.203125 L 898.390625 756.691406 L 899.410156 756.183594 L 900.179688 755.414062 L 901.199219 754.90625 L 902.21875 754.394531 L 902.988281 753.628906 L 904.007812 753.117188 L 904.773438 752.351562 L 905.792969 751.839844 L 906.816406 751.332031 L 907.835938 750.820312 L 908.601562 750.054688 L 909.625 749.542969 L 910.902344 749.289062 L 911.667969 748.523438 L 912.6875 748.011719 L 913.710938 747.5 L 914.476562 746.734375 L 915.496094 746.222656 L 916.519531 745.714844 L 918.558594 744.691406 L 919.582031 744.183594 L 920.859375 743.925781 L 921.625 743.160156 L 922.644531 742.648438 L 923.921875 742.394531 L 924.941406 741.882812 L 925.964844 741.375 L 927.242188 741.117188 L 928.261719 740.609375 L 929.539062 740.351562 L 930.558594 739.839844 L 933.113281 739.332031 L 934.390625 739.074219 L 935.667969 738.820312 L 936.941406 738.566406 L 937.964844 738.054688 L 941.027344 738.054688 L 942.050781 737.542969 L 948.175781 737.542969 L 949.453125 737.800781 L 950.730469 738.054688 L 952.261719 738.054688 L 953.28125 738.566406 L 954.816406 738.566406 L 955.835938 739.074219 L 957.367188 739.074219 L 958.390625 739.585938 L 959.410156 740.097656 L 960.433594 740.609375 L 961.453125 741.117188 L 962.730469 741.375 L 963.496094 742.140625 L 964.515625 742.648438 L 965.539062 743.160156 L 966.304688 743.925781 L 967.324219 744.4375 L 968.855469 745.96875 L 969.878906 746.480469 L 970.390625 747.5 L 971.921875 749.03125 L 972.6875 749.800781 L 973.199219 750.820312 L 973.964844 751.585938 L 974.472656 752.605469 L 975.238281 753.375 L 976.003906 754.140625 L 976.515625 755.160156 L 976.773438 756.4375 L 977.539062 757.203125 L 978.046875 758.222656 L 978.046875 759.757812 L 979.070312 761.796875 L 979.582031 762.820312 L 979.582031 765.882812 L 980.089844 768.4375 L 980.089844 774.5625 L 979.582031 775.585938 L 979.582031 777.117188 L 979.324219 778.394531 L 979.070312 779.671875 L 978.558594 780.691406 L 978.046875 781.714844 L 977.792969 782.988281 L 977.539062 784.265625 L 977.027344 785.289062 L 976.261719 786.054688 L 976.003906 787.328125 L 975.496094 788.351562 L 974.730469 789.117188 L 974.21875 790.136719 L 973.707031 791.160156 L 972.941406 791.925781 L 972.429688 792.945312 L 971.921875 793.96875 L 970.390625 795.5 L 969.878906 796.519531 L 969.113281 797.285156 L 968.347656 798.054688 L 966.816406 799.585938 L 966.304688 800.605469 L 965.28125 801.117188 L 964.773438 802.136719 L 963.75 802.648438 L 960.6875 805.710938 L 959.664062 806.222656 L 958.132812 807.753906 L 957.113281 808.265625 L 956.347656 809.03125 L 955.324219 809.542969 L 954.304688 810.050781 L 953.539062 810.820312 L 952.515625 811.328125 L 951.496094 811.839844 L 950.730469 812.605469 L 949.707031 813.117188 L 948.6875 813.628906 L 947.667969 814.136719 L 946.644531 814.648438 L 945.367188 814.902344 L 944.347656 815.414062 L 943.324219 815.925781 L 942.050781 816.179688 L 941.027344 816.691406 L 939.75 816.945312 L 938.476562 817.203125 L 937.453125 817.710938 L 935.921875 817.710938 L 934.902344 818.222656 L 931.835938 818.222656 L 930.558594 818.476562 L 929.285156 818.734375 L 924.6875 818.734375 L 923.667969 818.222656 L 919.070312 818.222656 L 917.792969 817.96875 L 916.519531 817.710938 L 914.984375 817.710938 L 913.964844 817.203125 L 912.945312 816.691406 L 911.410156 816.691406 L 910.390625 816.179688 L 908.859375 816.179688 L 907.835938 815.667969 L 906.816406 815.160156 L 905.792969 814.648438 L 904.519531 814.394531 L 903.242188 814.136719 L 902.21875 813.628906 L 900.179688 812.605469 L 898.902344 812.351562 L 897.878906 811.839844 L 896.859375 811.328125 L 895.582031 811.074219 L 894.5625 810.5625 L 893.539062 810.050781 L 892.519531 809.542969 L 891.496094 809.03125 L 890.222656 808.777344 L 889.453125 808.011719 L 888.433594 807.5 L 887.15625 807.246094 L 886.136719 806.734375 L 885.371094 805.96875 L 884.09375 805.710938 L 883.070312 805.203125 L 881.03125 804.179688 L 879.753906 803.925781 L 878.730469 803.414062 L 877.710938 802.902344 L 876.6875 802.394531 L 874.648438 801.371094 L 873.625 800.863281 L 872.605469 800.351562 L 871.074219 800.351562 L 870.304688 799.585938 L 869.285156 799.074219 L 868.007812 798.820312 L 866.988281 798.308594 L 865.964844 797.796875 L 864.945312 797.285156 L 863.414062 797.285156 L 862.390625 796.777344 L 861.113281 796.519531 L 860.09375 796.011719 L 858.816406 795.753906 L 857.796875 795.246094 L 856.265625 795.246094 L 855.242188 794.734375 L 854.222656 794.222656 L 852.691406 794.222656 L 851.667969 793.710938 L 848.605469 793.710938 L 847.582031 793.203125 L 846.050781 793.203125 L 845.03125 792.691406 L 843.5 792.691406 L 842.222656 792.4375 L 840.945312 792.179688 L 836.351562 792.179688 L 835.328125 791.671875 L 834.5625 791.925781 L 833.285156 791.671875 L 828.691406 791.671875 L 827.667969 792.179688 L 826.136719 792.179688 L 825.371094 791.925781 L 824.09375 792.179688 L 819.5 792.179688 L 818.222656 792.4375 L 816.945312 792.691406 L 815.414062 792.691406 L 814.394531 793.203125 L 811.328125 793.203125 L 810.308594 793.710938 L 807.246094 793.710938 L 806.222656 794.222656 L 805.203125 794.734375 L 803.667969 794.734375 L 802.648438 795.246094 L 801.117188 795.246094 L 800.09375 795.753906 L 798.5625 795.753906 L 797.542969 796.265625 L 796.519531 796.777344 L 794.988281 796.777344 L 793.96875 797.285156 L 792.4375 797.285156 L 791.414062 797.796875 L 790.394531 798.308594 L 788.863281 798.308594 L 787.839844 798.820312 L 786.820312 799.328125 L 785.542969 799.585938 L 784.519531 800.09375 L 783.246094 800.351562 L 782.222656 800.863281 L 780.691406 800.863281 L 779.671875 801.371094 L 778.648438 801.882812 L 777.371094 802.136719 L 776.097656 802.394531 L 775.074219 802.902344 L 774.054688 803.414062 L 773.03125 803.925781 L 771.753906 804.179688 L 770.734375 804.691406 L 769.457031 804.945312 L 768.4375 805.457031 L 767.414062 805.96875 L 766.394531 806.476562 L 765.117188 806.734375 L 764.097656 807.246094 L 762.820312 807.5 L 761.796875 808.011719 L 760.523438 808.265625 L 759.5 808.777344 L 758.222656 809.03125 L 757.203125 809.542969 L 756.183594 810.050781 L 755.160156 810.5625 L 754.140625 811.074219 L 752.863281 811.328125 L 751.585938 811.585938 L 750.566406 812.09375 L 749.542969 812.605469 L 748.523438 813.117188 L 747.246094 813.371094 L 746.222656 813.882812 L 745.203125 814.394531 L 743.925781 814.648438 L 742.90625 815.160156 L 741.882812 815.667969 L 740.863281 816.179688 L 739.585938 816.433594 L 738.308594 816.691406 L 737.289062 817.203125 L 736.265625 817.710938 L 735.246094 818.222656 L 733.96875 818.476562 L 732.949219 818.988281 L 731.671875 819.242188 L 730.652344 819.753906 L 729.628906 820.265625 L 728.351562 820.519531 L 727.332031 821.03125 L 726.054688 821.285156 L 725.035156 821.796875 L 724.011719 822.308594 L 722.734375 822.5625 L 721.460938 822.816406 L 720.4375 823.328125 L 719.417969 823.839844 L 718.140625 824.09375 L 717.117188 824.605469 L 715.84375 824.859375 L 714.820312 825.371094 L 713.289062 825.371094 L 712.269531 825.882812 L 711.246094 826.394531 L 710.226562 826.902344 L 708.695312 826.902344 L 707.671875 827.414062 L 706.652344 827.925781 L 705.628906 828.433594 L 704.097656 828.433594 L 703.078125 828.945312 L 701.800781 829.199219 L 700.777344 829.710938 L 699.503906 829.96875 L 698.480469 830.476562 L 696.949219 830.476562 L 695.929688 830.988281 L 694.90625 831.5 L 693.375 831.5 L 692.355469 832.007812 L 690.820312 832.007812 L 689.800781 832.519531 L 688.523438 832.777344 L 687.503906 833.285156 L 686.226562 833.542969 L 684.695312 833.542969 L 683.671875 834.050781 L 682.394531 834.308594 L 681.121094 834.5625 L 680.097656 835.074219 L 678.566406 835.074219 L 677.546875 835.582031 L 676.011719 835.582031 L 674.992188 836.09375 L 673.460938 836.09375 L 672.4375 836.605469 L 671.164062 836.859375 L 669.886719 837.117188 L 666.824219 837.117188 L 665.800781 837.625 L 662.738281 837.625 L 661.714844 838.136719 L 660.441406 838.390625 L 659.164062 838.648438 L 656.097656 838.648438 Z M 655.589844 839.160156 " fill-opacity="1" fill-rule="nonzero"/><path fill="#000000" d="M 776.605469 917.792969 L 768.949219 917.792969 L 766.394531 917.285156 L 763.332031 917.285156 L 762.308594 916.773438 L 759.246094 916.773438 L 758.222656 916.261719 L 753.628906 916.261719 L 752.605469 915.75 L 751.074219 915.75 L 749.800781 915.496094 L 748.523438 915.242188 L 747.5 914.730469 L 745.96875 914.730469 L 744.949219 914.21875 L 741.882812 914.21875 L 740.863281 913.710938 L 739.839844 913.199219 L 738.820312 912.6875 L 737.289062 912.6875 L 736.011719 912.433594 L 734.734375 912.175781 L 733.714844 911.667969 L 732.691406 911.15625 L 731.417969 910.902344 L 730.140625 910.644531 L 729.117188 910.136719 L 727.84375 909.878906 L 726.820312 909.367188 L 725.542969 909.113281 L 724.269531 908.859375 L 723.246094 908.347656 L 722.226562 907.835938 L 720.949219 907.582031 L 719.925781 907.070312 L 718.90625 906.5625 L 717.886719 906.050781 L 716.863281 905.539062 L 715.332031 905.539062 L 714.308594 905.027344 L 713.289062 904.519531 L 712.269531 904.007812 L 711.246094 903.496094 L 710.226562 902.984375 L 709.203125 902.476562 L 708.183594 901.964844 L 706.652344 901.964844 L 705.886719 901.199219 L 704.863281 900.6875 L 703.585938 900.433594 L 702.566406 899.921875 L 701.800781 899.15625 L 700.523438 898.902344 L 699.503906 898.390625 L 698.480469 897.878906 L 697.460938 897.371094 L 696.4375 896.859375 L 695.417969 896.347656 L 694.652344 895.582031 L 693.375 895.328125 L 692.355469 894.816406 L 691.332031 894.304688 L 690.566406 893.539062 L 689.289062 893.285156 L 688.269531 892.773438 L 687.503906 892.007812 L 686.226562 891.753906 L 685.203125 891.242188 L 684.4375 890.476562 L 683.417969 889.964844 L 682.140625 889.710938 L 681.375 888.945312 L 680.355469 888.433594 L 679.332031 887.921875 L 678.3125 887.414062 L 677.546875 886.644531 L 676.269531 886.390625 L 675.246094 885.878906 L 674.480469 885.113281 L 673.460938 884.605469 L 672.183594 884.347656 L 671.417969 883.582031 L 670.398438 883.070312 L 669.375 882.5625 L 668.097656 882.304688 L 667.332031 881.539062 L 666.3125 881.03125 L 665.035156 880.773438 L 664.269531 880.007812 L 663.246094 879.496094 L 661.972656 879.242188 L 660.949219 878.730469 L 660.183594 877.964844 L 659.164062 877.453125 L 657.886719 877.199219 L 656.863281 876.6875 L 655.84375 876.179688 L 654.566406 875.921875 L 653.546875 875.414062 L 652.78125 874.648438 L 651.503906 874.390625 L 650.480469 873.878906 L 649.460938 873.371094 L 648.441406 872.859375 L 647.417969 872.347656 L 645.886719 872.347656 L 645.121094 871.582031 L 644.097656 871.070312 L 642.824219 870.816406 L 641.800781 870.304688 L 640.523438 870.050781 L 639.757812 869.285156 L 638.226562 869.285156 L 637.207031 868.773438 L 634.652344 868.265625 L 633.632812 867.753906 L 632.609375 867.242188 L 631.078125 867.242188 L 630.058594 866.730469 L 629.035156 866.222656 L 628.015625 865.710938 L 626.484375 865.710938 L 625.460938 865.199219 L 622.398438 865.199219 L 621.375 864.6875 L 620.355469 864.179688 L 618.824219 864.179688 L 617.800781 863.667969 L 614.738281 863.667969 L 613.460938 863.414062 L 612.183594 863.15625 L 611.164062 862.648438 L 606.570312 862.648438 L 605.546875 862.136719 L 596.355469 862.136719 L 595.335938 862.648438 L 592.78125 863.15625 L 591.25 863.15625 L 589.972656 863.414062 L 588.695312 863.667969 L 585.632812 863.667969 L 584.355469 863.921875 L 583.078125 864.179688 L 581.804688 864.433594 L 580.527344 864.6875 L 579.25 864.945312 L 577.972656 865.199219 L 574.910156 865.199219 L 573.886719 865.710938 L 569.292969 865.710938 L 568.273438 866.222656 L 559.082031 866.222656 L 558.058594 865.710938 L 554.996094 865.710938 L 553.972656 865.199219 L 552.441406 865.199219 L 551.421875 864.6875 L 550.144531 864.433594 L 549.125 863.921875 L 546.570312 863.414062 L 545.550781 862.902344 L 544.78125 862.136719 L 543.761719 861.625 L 542.484375 861.371094 L 541.71875 860.605469 L 540.699219 860.09375 L 539.675781 859.582031 L 538.910156 858.816406 L 537.890625 858.304688 L 536.867188 857.796875 L 536.101562 857.03125 L 535.082031 856.519531 L 532.785156 854.222656 L 532.015625 853.457031 L 530.996094 852.945312 L 530.484375 851.921875 L 529.464844 851.414062 L 527.167969 849.117188 L 526.402344 848.347656 L 525.632812 847.582031 L 525.125 846.5625 L 523.59375 845.03125 L 522.824219 844.265625 L 522.058594 843.5 L 521.550781 842.476562 L 520.019531 840.945312 L 519.507812 839.925781 L 518.742188 839.160156 L 518.230469 838.136719 L 516.699219 836.605469 L 516.441406 835.328125 L 514.910156 833.796875 L 514.402344 832.777344 L 513.890625 831.753906 L 513.125 830.988281 L 512.613281 829.96875 L 512.101562 828.945312 L 511.335938 828.179688 L 510.828125 827.160156 L 510.570312 825.882812 L 509.804688 825.117188 L 509.292969 824.09375 L 508.785156 823.074219 L 508.527344 821.796875 L 507.761719 821.03125 L 507.253906 820.011719 L 507.253906 818.476562 L 506.484375 817.710938 L 505.976562 816.691406 L 505.71875 815.414062 L 505.210938 814.394531 L 505.210938 812.859375 L 504.445312 812.09375 L 503.933594 811.074219 L 503.675781 809.796875 L 503.675781 808.265625 L 503.167969 805.710938 L 502.910156 804.4375 L 502.65625 803.160156 L 502.144531 802.136719 L 502.144531 797.542969 L 502.402344 796.265625 L 502.65625 794.988281 L 503.167969 793.96875 L 503.675781 791.414062 L 504.1875 790.394531 L 504.699219 789.371094 L 505.210938 788.351562 L 505.71875 787.328125 L 506.484375 786.5625 L 507.253906 785.796875 L 509.550781 783.5 L 510.570312 782.988281 L 513.125 782.480469 L 514.144531 781.96875 L 515.675781 781.96875 L 516.699219 781.457031 L 517.976562 781.714844 L 519.25 781.96875 L 520.273438 782.480469 L 521.804688 782.480469 L 522.824219 782.988281 L 524.359375 782.988281 L 525.125 783.753906 L 526.144531 784.265625 L 527.421875 784.519531 L 528.441406 785.03125 L 529.207031 785.796875 L 530.230469 786.308594 L 531.507812 786.5625 L 532.273438 787.328125 L 533.039062 788.097656 L 534.316406 788.351562 L 535.082031 789.117188 L 536.101562 789.628906 L 537.125 790.136719 L 537.890625 790.902344 L 538.65625 791.671875 L 539.675781 792.179688 L 540.1875 793.203125 L 541.207031 793.710938 L 541.972656 794.480469 L 542.742188 795.246094 L 544.273438 796.777344 L 545.292969 797.285156 L 545.804688 798.308594 L 546.824219 798.820312 L 547.589844 799.585938 L 548.101562 800.605469 L 549.125 801.117188 L 549.632812 802.136719 L 551.164062 803.667969 L 551.675781 804.691406 L 553.207031 806.222656 L 553.71875 807.246094 L 554.484375 808.011719 L 554.996094 809.03125 L 556.015625 809.542969 L 556.527344 810.5625 L 557.039062 811.585938 L 558.570312 813.117188 L 559.082031 814.136719 L 560.101562 814.648438 L 560.355469 815.925781 L 561.378906 816.433594 L 561.890625 817.457031 L 562.398438 818.476562 L 563.164062 819.242188 L 563.929688 820.011719 L 564.441406 821.03125 L 566.738281 823.328125 L 567.25 824.351562 L 568.78125 825.882812 L 569.292969 826.902344 L 570.824219 828.433594 L 571.335938 829.457031 L 572.101562 830.222656 L 573.121094 830.734375 L 573.632812 831.753906 L 576.695312 834.816406 L 577.464844 835.582031 L 578.230469 836.351562 L 578.996094 837.117188 L 580.015625 837.625 L 580.527344 838.648438 L 581.546875 839.160156 L 583.078125 840.691406 L 584.101562 841.199219 L 584.613281 842.222656 L 585.632812 842.734375 L 586.398438 843.5 L 587.421875 844.007812 L 588.441406 844.519531 L 589.207031 845.285156 L 590.230469 845.796875 L 591.25 846.308594 L 591.761719 847.328125 L 592.78125 847.839844 L 593.804688 848.347656 L 594.570312 849.117188 L 595.84375 849.371094 L 596.613281 850.136719 L 597.378906 850.902344 L 598.398438 851.414062 L 599.675781 851.667969 L 600.441406 852.433594 L 601.460938 852.945312 L 602.484375 853.457031 L 603.503906 853.964844 L 604.527344 854.476562 L 605.546875 854.988281 L 606.570312 855.5 L 607.589844 856.007812 L 608.609375 856.519531 L 609.886719 856.773438 L 611.164062 857.03125 L 611.929688 857.796875 L 613.207031 858.050781 L 614.226562 858.5625 L 615.761719 858.5625 L 616.78125 859.074219 L 617.800781 859.582031 L 619.335938 859.582031 L 620.355469 860.09375 L 624.949219 860.09375 L 625.972656 860.605469 L 630.566406 860.605469 L 631.589844 861.113281 L 654.566406 861.113281 L 657.121094 860.605469 L 658.652344 860.605469 L 659.929688 860.347656 L 661.207031 860.09375 L 667.332031 860.09375 L 668.355469 859.582031 L 671.417969 859.582031 L 672.4375 859.074219 L 673.972656 859.074219 L 674.992188 858.5625 L 676.523438 858.5625 L 677.800781 858.304688 L 679.078125 858.050781 L 680.609375 858.050781 L 681.886719 857.796875 L 683.164062 857.539062 L 684.183594 857.03125 L 685.460938 856.773438 L 686.738281 856.519531 L 688.269531 856.519531 L 689.546875 856.265625 L 690.820312 856.007812 L 691.84375 855.5 L 693.375 855.5 L 694.394531 854.988281 L 695.929688 854.988281 L 696.949219 854.476562 L 698.480469 854.476562 L 699.503906 853.964844 L 700.523438 853.457031 L 702.054688 853.457031 L 703.078125 852.945312 L 704.609375 852.945312 L 705.628906 852.433594 L 706.652344 851.921875 L 707.925781 851.667969 L 709.203125 851.414062 L 710.226562 850.902344 L 711.757812 850.902344 L 712.777344 850.390625 L 713.800781 849.882812 L 715.078125 849.625 L 716.351562 849.371094 L 717.628906 849.117188 L 718.90625 848.859375 L 719.925781 848.347656 L 720.949219 847.839844 L 722.226562 847.582031 L 723.5 847.328125 L 724.523438 846.816406 L 725.542969 846.308594 L 726.820312 846.050781 L 728.097656 845.796875 L 729.117188 845.285156 L 730.394531 845.03125 L 731.417969 844.519531 L 732.691406 844.265625 L 733.714844 843.753906 L 734.992188 843.5 L 736.011719 842.988281 L 737.289062 842.734375 L 738.308594 842.222656 L 739.585938 841.964844 L 740.863281 841.710938 L 741.882812 841.199219 L 742.90625 840.691406 L 744.4375 840.691406 L 745.457031 840.179688 L 746.480469 839.667969 L 747.5 839.160156 L 748.777344 838.902344 L 750.054688 838.648438 L 751.074219 838.136719 L 752.097656 837.625 L 753.375 837.371094 L 754.648438 837.117188 L 755.671875 836.605469 L 756.949219 836.351562 L 757.96875 835.839844 L 759.246094 835.582031 L 760.265625 835.074219 L 761.796875 835.074219 L 762.820312 834.5625 L 763.839844 834.050781 L 766.394531 833.542969 L 767.414062 833.03125 L 768.4375 832.519531 L 769.714844 832.265625 L 770.988281 832.007812 L 772.011719 831.5 L 773.289062 831.242188 L 774.5625 830.988281 L 775.585938 830.476562 L 776.863281 830.222656 L 778.136719 829.96875 L 779.671875 829.96875 L 780.691406 829.457031 L 781.714844 828.945312 L 782.734375 828.433594 L 784.265625 828.433594 L 786.820312 827.925781 L 787.839844 827.414062 L 789.117188 827.160156 L 790.394531 826.902344 L 791.671875 826.648438 L 792.945312 826.394531 L 794.480469 826.394531 L 795.5 825.882812 L 796.777344 825.625 L 798.054688 825.371094 L 799.585938 825.371094 L 800.605469 824.859375 L 802.136719 824.859375 L 803.160156 824.351562 L 804.691406 824.351562 L 805.710938 823.839844 L 808.777344 823.839844 L 809.796875 823.328125 L 814.394531 823.328125 L 815.414062 822.816406 L 832.265625 822.816406 L 833.542969 823.074219 L 834.816406 823.328125 L 837.882812 823.328125 L 838.902344 823.839844 L 840.179688 824.09375 L 841.457031 824.351562 L 842.476562 824.859375 L 844.007812 824.859375 L 845.03125 825.371094 L 846.050781 825.882812 L 847.074219 826.394531 L 848.605469 826.394531 L 849.625 826.902344 L 850.648438 827.414062 L 851.667969 827.925781 L 852.691406 828.433594 L 853.710938 828.945312 L 854.476562 829.710938 L 855.753906 829.96875 L 856.773438 830.476562 L 857.539062 831.242188 L 858.308594 832.007812 L 859.328125 832.519531 L 859.839844 833.542969 L 860.859375 834.050781 L 862.390625 835.582031 L 863.15625 836.351562 L 864.179688 838.390625 L 864.691406 839.414062 L 865.199219 840.433594 L 865.964844 841.199219 L 866.222656 842.476562 L 866.730469 843.5 L 866.730469 848.09375 L 866.988281 849.371094 L 867.242188 850.648438 L 866.730469 851.667969 L 866.730469 854.730469 L 866.222656 857.285156 L 865.710938 858.304688 L 865.199219 859.328125 L 865.199219 860.859375 L 864.691406 861.882812 L 863.667969 863.921875 L 863.15625 864.945312 L 862.648438 865.964844 L 861.882812 866.730469 L 861.371094 867.753906 L 861.113281 869.03125 L 859.582031 870.5625 L 859.074219 871.582031 L 858.5625 872.605469 L 857.796875 873.371094 L 857.285156 874.390625 L 856.773438 875.414062 L 854.476562 877.710938 L 853.964844 878.730469 L 852.433594 880.261719 L 851.925781 881.285156 L 851.15625 882.050781 L 848.859375 884.347656 L 848.347656 885.371094 L 846.050781 887.667969 L 845.03125 888.179688 L 844.519531 889.199219 L 843.5 889.710938 L 842.734375 890.476562 L 841.964844 891.242188 L 838.902344 894.304688 L 837.882812 894.816406 L 837.117188 895.582031 L 836.09375 896.09375 L 835.328125 896.859375 L 834.308594 897.371094 L 833.796875 898.390625 L 832.777344 898.902344 L 831.753906 899.410156 L 830.988281 900.179688 L 829.96875 900.6875 L 829.199219 901.453125 L 827.160156 902.476562 L 826.136719 902.984375 L 825.117188 903.496094 L 824.09375 904.007812 L 823.074219 904.519531 L 822.308594 905.285156 L 821.03125 905.539062 L 820.011719 906.050781 L 819.242188 906.816406 L 817.96875 907.070312 L 816.945312 907.582031 L 815.925781 908.09375 L 814.902344 908.601562 L 813.882812 909.113281 L 812.605469 909.367188 L 811.328125 909.625 L 810.308594 910.136719 L 809.285156 910.644531 L 807.246094 911.667969 L 804.691406 912.175781 L 803.667969 912.6875 L 802.394531 912.945312 L 801.117188 913.199219 L 800.09375 913.710938 L 799.074219 914.21875 L 797.542969 914.21875 L 796.265625 914.476562 L 794.988281 914.730469 L 793.96875 915.242188 L 791.414062 915.75 L 790.136719 916.007812 L 788.863281 916.261719 L 785.796875 916.261719 L 784.777344 916.773438 L 781.714844 916.773438 L 780.691406 917.285156 L 777.628906 917.285156 Z M 776.605469 917.792969 " fill-opacity="1" fill-rule="nonzero"/><path fill="#000000" d="M 684.183594 969.878906 L 667.332031 969.878906 L 666.3125 969.367188 L 664.78125 969.367188 L 663.757812 968.855469 L 657.632812 968.855469 L 655.078125 968.347656 L 653.546875 968.347656 L 652.269531 968.089844 L 650.992188 967.835938 L 649.972656 967.324219 L 648.441406 967.324219 L 647.417969 966.8125 L 644.355469 966.8125 L 643.332031 966.304688 L 641.292969 965.28125 L 639.757812 965.28125 L 638.738281 964.773438 L 637.207031 964.773438 L 636.183594 964.261719 L 635.164062 963.75 L 634.140625 963.238281 L 632.609375 963.238281 L 631.589844 962.730469 L 630.566406 962.21875 L 629.546875 961.707031 L 628.015625 961.707031 L 626.992188 961.199219 L 625.972656 960.6875 L 624.949219 960.175781 L 623.929688 959.664062 L 622.652344 959.410156 L 621.886719 958.644531 L 620.867188 958.132812 L 619.589844 957.878906 L 618.824219 957.113281 L 617.800781 956.601562 L 616.78125 956.089844 L 615.503906 955.835938 L 614.738281 955.070312 L 613.71875 954.558594 L 612.695312 954.046875 L 611.675781 953.539062 L 610.652344 953.027344 L 609.632812 952.515625 L 608.101562 950.984375 L 607.078125 950.472656 L 606.058594 949.964844 L 605.035156 949.453125 L 603.503906 947.921875 L 602.484375 947.410156 L 600.953125 945.878906 L 599.929688 945.367188 L 598.398438 943.835938 L 597.378906 943.324219 L 596.613281 942.558594 L 595.84375 941.792969 L 589.71875 935.667969 L 588.953125 934.898438 L 588.441406 933.878906 L 587.421875 933.367188 L 586.910156 932.347656 L 586.144531 931.582031 L 585.632812 930.558594 L 584.101562 929.027344 L 583.589844 928.007812 L 582.824219 927.242188 L 582.3125 926.21875 L 581.804688 925.199219 L 581.039062 924.433594 L 580.269531 923.667969 L 579.761719 922.644531 L 579.25 921.625 L 578.484375 920.859375 L 578.230469 919.582031 L 577.464844 918.816406 L 576.695312 918.050781 L 576.441406 916.773438 L 575.929688 915.75 L 575.421875 914.730469 L 574.910156 913.710938 L 574.65625 912.433594 L 574.65625 910.902344 L 574.144531 909.878906 L 573.886719 908.601562 L 573.632812 907.328125 L 573.632812 902.730469 L 574.144531 901.710938 L 574.398438 900.433594 L 574.65625 899.15625 L 574.910156 897.878906 L 575.421875 896.859375 L 575.929688 895.835938 L 576.1875 894.5625 L 576.953125 893.796875 L 577.71875 893.027344 L 578.230469 892.007812 L 579.761719 890.476562 L 580.269531 889.453125 L 581.039062 888.6875 L 581.804688 887.921875 L 582.824219 887.414062 L 583.589844 886.644531 L 584.613281 886.136719 L 585.378906 885.371094 L 586.398438 884.859375 L 587.421875 884.347656 L 588.441406 883.835938 L 589.460938 883.328125 L 590.738281 883.070312 L 591.761719 882.5625 L 592.78125 882.050781 L 594.058594 881.796875 L 595.335938 881.539062 L 596.355469 881.03125 L 599.417969 881.03125 L 600.441406 880.519531 L 609.632812 880.519531 L 610.910156 880.773438 L 612.183594 881.03125 L 616.78125 881.03125 L 617.800781 881.539062 L 619.335938 881.539062 L 620.355469 882.050781 L 621.886719 882.050781 L 622.910156 882.5625 L 624.441406 882.5625 L 625.460938 883.070312 L 626.992188 883.070312 L 628.015625 883.582031 L 629.035156 884.09375 L 630.566406 884.09375 L 631.84375 884.347656 L 633.121094 884.605469 L 635.675781 885.113281 L 637.714844 886.136719 L 639.25 886.136719 L 640.269531 886.644531 L 641.546875 886.902344 L 642.566406 887.414062 L 645.121094 887.921875 L 646.398438 888.179688 L 647.417969 888.6875 L 648.441406 889.199219 L 649.460938 889.710938 L 650.992188 889.710938 L 652.015625 890.21875 L 653.035156 890.730469 L 654.058594 891.242188 L 655.332031 891.496094 L 656.355469 892.007812 L 657.121094 892.773438 L 658.140625 893.285156 L 659.671875 893.285156 L 660.695312 893.796875 L 661.460938 894.5625 L 662.738281 894.816406 L 663.757812 895.328125 L 664.78125 895.835938 L 665.800781 896.347656 L 666.824219 896.859375 L 667.84375 897.371094 L 668.863281 897.878906 L 669.886719 898.390625 L 670.90625 898.902344 L 671.929688 899.410156 L 672.949219 899.921875 L 673.972656 900.433594 L 674.992188 900.945312 L 675.757812 901.710938 L 677.035156 901.964844 L 678.054688 902.476562 L 678.820312 903.242188 L 680.097656 903.496094 L 680.863281 904.261719 L 681.886719 904.773438 L 682.90625 905.285156 L 684.183594 905.539062 L 685.714844 907.070312 L 686.992188 907.328125 L 688.011719 907.835938 L 688.777344 908.601562 L 689.800781 909.113281 L 690.820312 909.625 L 691.84375 910.136719 L 692.863281 910.644531 L 693.886719 911.15625 L 694.652344 911.921875 L 695.929688 912.175781 L 696.949219 912.6875 L 697.714844 913.453125 L 698.738281 913.964844 L 700.011719 914.21875 L 701.035156 914.730469 L 701.800781 915.496094 L 703.078125 915.75 L 704.097656 916.261719 L 704.863281 917.027344 L 705.886719 917.539062 L 707.160156 917.792969 L 707.925781 918.558594 L 708.949219 919.070312 L 710.226562 919.328125 L 711.246094 919.835938 L 712.269531 920.347656 L 713.289062 920.859375 L 714.308594 921.367188 L 715.585938 921.625 L 716.609375 922.132812 L 717.628906 922.644531 L 718.90625 922.902344 L 719.925781 923.410156 L 720.949219 923.921875 L 721.96875 924.433594 L 724.523438 924.941406 L 725.542969 925.453125 L 726.566406 925.964844 L 727.585938 926.476562 L 729.117188 926.476562 L 730.140625 926.984375 L 731.417969 927.242188 L 732.183594 928.007812 L 733.714844 928.007812 L 734.734375 928.515625 L 736.265625 928.515625 L 737.289062 929.027344 L 738.308594 929.539062 L 739.585938 929.792969 L 740.863281 930.050781 L 743.417969 930.558594 L 745.457031 931.582031 L 746.992188 931.582031 L 748.265625 931.835938 L 749.542969 932.09375 L 750.566406 932.601562 L 751.839844 932.859375 L 753.117188 933.113281 L 754.648438 933.113281 L 755.671875 933.625 L 758.734375 933.625 L 761.289062 934.132812 L 762.308594 934.644531 L 763.585938 934.898438 L 764.863281 935.15625 L 772.523438 935.15625 L 773.542969 935.667969 L 784.265625 935.667969 L 785.542969 935.410156 L 786.820312 935.15625 L 789.882812 935.15625 L 790.902344 934.644531 L 792.4375 934.644531 L 793.710938 934.390625 L 794.988281 934.132812 L 796.011719 933.625 L 797.542969 933.625 L 798.820312 933.367188 L 800.09375 933.113281 L 801.371094 932.859375 L 802.648438 932.601562 L 803.667969 932.09375 L 804.945312 931.835938 L 806.222656 931.582031 L 807.246094 931.070312 L 808.777344 931.070312 L 809.796875 930.558594 L 810.820312 930.050781 L 812.09375 929.792969 L 813.371094 929.539062 L 814.394531 929.027344 L 815.414062 928.515625 L 816.433594 928.007812 L 817.710938 927.75 L 818.734375 927.242188 L 819.753906 926.730469 L 821.03125 926.476562 L 822.050781 925.964844 L 823.074219 925.453125 L 824.09375 924.941406 L 825.117188 924.433594 L 826.136719 923.921875 L 827.160156 923.410156 L 828.179688 922.902344 L 829.199219 922.390625 L 830.222656 921.878906 L 831.242188 921.367188 L 832.265625 920.859375 L 833.03125 920.09375 L 834.050781 919.582031 L 835.074219 919.070312 L 836.09375 918.558594 L 836.859375 917.792969 L 837.882812 917.285156 L 838.902344 916.773438 L 839.925781 916.261719 L 841.457031 914.730469 L 842.476562 914.21875 L 843.5 913.710938 L 844.265625 912.945312 L 845.285156 912.433594 L 846.050781 911.667969 L 847.074219 911.15625 L 848.09375 910.644531 L 848.605469 909.625 L 849.625 909.113281 L 851.15625 907.582031 L 852.179688 907.070312 L 853.710938 905.539062 L 854.730469 905.027344 L 855.5 904.261719 L 856.265625 903.496094 L 857.285156 902.984375 L 859.582031 900.6875 L 860.605469 900.179688 L 861.113281 899.15625 L 862.136719 898.644531 L 863.667969 897.113281 L 864.691406 896.601562 L 870.050781 891.242188 L 871.074219 890.730469 L 875.667969 886.136719 L 876.6875 885.625 L 877.457031 884.859375 L 881.285156 881.03125 L 882.304688 880.519531 L 883.070312 879.753906 L 883.839844 878.988281 L 884.605469 878.222656 L 885.371094 877.453125 L 886.390625 876.945312 L 887.921875 875.414062 L 888.945312 874.902344 L 889.710938 874.136719 L 890.730469 873.625 L 892.261719 872.09375 L 893.285156 871.582031 L 894.050781 870.816406 L 895.070312 870.304688 L 895.835938 869.539062 L 896.605469 868.773438 L 897.625 868.265625 L 898.390625 867.496094 L 899.15625 866.730469 L 900.179688 866.222656 L 900.945312 865.457031 L 902.21875 865.199219 L 902.988281 864.433594 L 903.753906 863.667969 L 904.773438 863.15625 L 906.304688 861.625 L 907.582031 861.371094 L 908.347656 860.605469 L 909.371094 860.09375 L 910.390625 859.582031 L 911.15625 858.816406 L 912.175781 858.304688 L 913.199219 857.796875 L 914.21875 857.285156 L 914.984375 856.519531 L 916.261719 856.265625 L 917.285156 855.753906 L 918.050781 854.988281 L 919.328125 854.730469 L 920.347656 854.222656 L 921.367188 853.710938 L 922.390625 853.199219 L 923.667969 852.945312 L 924.6875 852.433594 L 925.710938 851.921875 L 926.730469 851.414062 L 928.261719 851.414062 L 929.285156 850.902344 L 930.558594 850.648438 L 931.835938 850.390625 L 932.859375 849.882812 L 938.984375 849.882812 L 940.261719 850.136719 L 941.285156 850.648438 L 942.558594 850.902344 L 943.582031 851.414062 L 944.601562 851.921875 L 945.367188 852.691406 L 946.390625 853.199219 L 946.898438 854.222656 L 947.667969 854.988281 L 948.175781 856.007812 L 948.6875 857.03125 L 948.941406 858.304688 L 948.941406 862.902344 L 948.433594 865.457031 L 947.410156 867.496094 L 946.898438 868.519531 L 946.898438 870.050781 L 946.390625 871.070312 L 945.625 871.839844 L 945.367188 873.113281 L 944.859375 874.136719 L 944.089844 874.902344 L 943.582031 875.921875 L 943.070312 876.945312 L 942.304688 877.710938 L 941.792969 878.730469 L 941.285156 879.753906 L 940.773438 880.773438 L 939.242188 882.304688 L 938.730469 883.328125 L 936.433594 885.625 L 935.921875 886.644531 L 935.15625 887.414062 L 932.09375 890.476562 L 931.324219 891.242188 L 928.261719 894.304688 L 927.242188 894.816406 L 925.710938 896.347656 L 924.6875 896.859375 L 923.15625 898.390625 L 922.136719 898.902344 L 921.367188 899.667969 L 920.601562 900.433594 L 919.582031 900.945312 L 918.816406 901.710938 L 917.792969 902.21875 L 916.773438 902.730469 L 916.007812 903.496094 L 914.984375 904.007812 L 913.964844 904.519531 L 912.945312 905.027344 L 911.921875 905.539062 L 910.902344 906.050781 L 910.136719 906.816406 L 909.113281 907.328125 L 908.09375 907.835938 L 907.328125 908.601562 L 906.304688 909.113281 L 905.027344 909.367188 L 904.007812 909.878906 L 903.242188 910.644531 L 901.964844 910.902344 L 900.945312 911.410156 L 899.921875 911.921875 L 898.902344 912.433594 L 897.878906 912.945312 L 896.605469 913.199219 L 895.835938 913.964844 L 894.5625 914.21875 L 893.539062 914.730469 L 892.519531 915.242188 L 891.496094 915.75 L 890.476562 916.261719 L 889.199219 916.519531 L 888.179688 917.027344 L 887.15625 917.539062 L 885.878906 917.792969 L 884.859375 918.304688 L 883.582031 918.558594 L 882.5625 919.070312 L 881.285156 919.328125 L 880.261719 919.835938 L 879.242188 920.347656 L 877.964844 920.601562 L 876.945312 921.113281 L 875.667969 921.367188 L 874.390625 921.625 L 873.113281 921.878906 L 871.074219 922.902344 L 868.519531 923.410156 L 867.242188 923.667969 L 866.222656 924.175781 L 864.945312 924.433594 L 863.921875 924.941406 L 862.390625 924.941406 L 861.371094 925.453125 L 859.839844 925.453125 L 858.816406 925.964844 L 857.796875 926.476562 L 856.265625 926.476562 L 855.242188 926.984375 L 853.710938 926.984375 L 852.433594 927.242188 L 851.15625 927.496094 L 850.136719 928.007812 L 847.582031 928.515625 L 846.050781 928.515625 L 844.773438 928.773438 L 843.5 929.027344 L 842.476562 929.539062 L 841.457031 930.050781 L 838.390625 930.050781 L 837.371094 930.558594 L 836.09375 930.816406 L 834.816406 931.070312 L 833.796875 931.582031 L 832.265625 931.582031 L 831.242188 932.09375 L 829.710938 932.09375 L 828.433594 932.347656 L 827.160156 932.601562 L 826.136719 933.113281 L 824.859375 933.367188 L 823.585938 933.625 L 822.050781 933.625 L 821.03125 934.132812 L 819.5 934.132812 L 818.476562 934.644531 L 817.457031 935.15625 L 815.925781 935.15625 L 814.648438 935.410156 L 813.371094 935.667969 L 811.839844 935.667969 L 810.820312 936.175781 L 809.796875 936.6875 L 808.265625 936.6875 L 807.246094 937.199219 L 805.710938 937.199219 L 804.691406 937.707031 L 803.160156 937.707031 L 802.136719 938.21875 L 800.863281 938.476562 L 798.308594 938.984375 L 797.03125 939.242188 L 795.753906 939.496094 L 794.734375 940.007812 L 792.179688 940.515625 L 790.902344 940.773438 L 789.628906 941.027344 L 788.351562 941.28125 L 787.328125 941.792969 L 786.054688 942.050781 L 783.5 942.558594 L 782.222656 942.816406 L 781.203125 943.324219 L 779.671875 943.324219 L 778.648438 943.835938 L 777.628906 944.347656 L 776.097656 944.347656 L 775.074219 944.859375 L 774.054688 945.367188 L 772.777344 945.625 L 770.222656 946.132812 L 768.949219 946.390625 L 767.925781 946.898438 L 766.90625 947.410156 L 765.628906 947.664062 L 764.351562 947.921875 L 763.074219 948.175781 L 762.054688 948.6875 L 760.777344 948.941406 L 759.757812 949.453125 L 758.480469 949.707031 L 757.203125 949.964844 L 756.183594 950.472656 L 755.160156 950.984375 L 754.140625 951.496094 L 752.605469 951.496094 L 751.585938 952.007812 L 750.566406 952.515625 L 749.542969 953.027344 L 748.011719 953.027344 L 746.992188 953.539062 L 745.96875 954.046875 L 744.949219 954.558594 L 743.671875 954.816406 L 742.394531 955.070312 L 741.375 955.582031 L 740.351562 956.089844 L 739.332031 956.601562 L 737.800781 956.601562 L 737.035156 957.367188 L 735.757812 957.625 L 734.734375 958.132812 L 733.457031 958.390625 L 732.183594 958.644531 L 731.160156 959.15625 L 730.140625 959.664062 L 728.863281 959.921875 L 727.585938 960.175781 L 726.566406 960.6875 L 725.542969 961.199219 L 724.523438 961.707031 L 722.992188 961.707031 L 721.96875 962.21875 L 720.691406 962.472656 L 719.925781 963.238281 L 718.394531 963.238281 L 717.117188 963.496094 L 715.84375 963.75 L 714.820312 964.261719 L 713.800781 964.773438 L 711.246094 965.28125 L 709.714844 965.28125 L 708.695312 965.792969 L 707.671875 966.304688 L 706.652344 966.8125 L 703.585938 966.8125 L 702.566406 967.324219 L 701.035156 967.324219 L 699.757812 967.582031 L 698.738281 968.089844 L 697.460938 968.347656 L 695.929688 968.347656 L 693.375 968.855469 L 688.777344 968.855469 L 687.757812 969.367188 L 684.695312 969.367188 Z M 684.183594 969.878906 " fill-opacity="1" fill-rule="nonzero"/><path fill="#000000" d="M 783.246094 983.15625 L 772.523438 983.15625 L 771.5 982.644531 L 768.4375 982.644531 L 767.414062 982.132812 L 766.394531 981.621094 L 765.371094 981.113281 L 764.351562 980.601562 L 763.839844 979.578125 L 762.820312 979.070312 L 762.566406 977.792969 L 762.566406 974.730469 L 762.820312 973.453125 L 763.332031 972.429688 L 764.097656 971.664062 L 764.605469 970.644531 L 765.117188 969.621094 L 765.882812 968.855469 L 766.90625 968.347656 L 767.671875 967.582031 L 768.4375 966.8125 L 769.96875 965.28125 L 770.988281 964.773438 L 772.523438 963.238281 L 773.542969 962.730469 L 774.5625 962.21875 L 775.585938 961.707031 L 776.605469 961.199219 L 777.371094 960.429688 L 778.394531 959.921875 L 779.414062 959.410156 L 780.179688 958.644531 L 781.203125 958.132812 L 782.222656 957.625 L 783.246094 957.113281 L 784.265625 956.601562 L 785.289062 956.089844 L 786.308594 955.582031 L 787.328125 955.070312 L 788.351562 954.558594 L 789.628906 954.304688 L 790.648438 953.792969 L 791.671875 953.28125 L 792.691406 952.773438 L 793.96875 952.515625 L 794.988281 952.007812 L 796.011719 951.496094 L 797.03125 950.984375 L 798.054688 950.472656 L 799.328125 950.21875 L 800.351562 949.707031 L 801.628906 949.453125 L 802.648438 948.941406 L 803.925781 948.6875 L 804.945312 948.175781 L 806.222656 947.921875 L 807.246094 947.410156 L 808.519531 947.15625 L 809.796875 946.898438 L 810.820312 946.390625 L 811.839844 945.878906 L 813.371094 945.878906 L 814.394531 945.367188 L 815.925781 945.367188 L 816.945312 944.859375 L 817.96875 944.347656 L 819.5 944.347656 L 820.519531 943.835938 L 823.585938 943.835938 L 824.605469 943.324219 L 826.136719 943.324219 L 827.160156 942.816406 L 828.433594 942.558594 L 829.710938 942.304688 L 835.839844 942.304688 L 836.859375 941.792969 L 844.519531 941.792969 L 845.542969 942.304688 L 848.605469 942.304688 L 849.625 942.816406 L 850.648438 943.324219 L 851.667969 943.835938 L 852.691406 944.347656 L 854.988281 946.644531 L 855.5 947.664062 L 855.5 950.730469 L 854.988281 951.75 L 854.476562 952.773438 L 853.964844 953.792969 L 852.433594 955.324219 L 851.925781 956.347656 L 850.902344 956.855469 L 850.136719 957.625 L 848.605469 959.15625 L 847.582031 959.664062 L 846.816406 960.429688 L 846.050781 961.199219 L 845.03125 961.707031 L 844.265625 962.472656 L 843.242188 962.984375 L 842.476562 963.75 L 841.457031 964.261719 L 840.433594 964.773438 L 839.414062 965.28125 L 838.390625 965.792969 L 837.625 966.558594 L 836.351562 966.8125 L 835.328125 967.324219 L 834.5625 968.089844 L 833.542969 968.601562 L 832.265625 968.855469 L 831.5 969.621094 L 830.476562 970.132812 L 829.199219 970.390625 L 828.179688 970.898438 L 827.160156 971.410156 L 826.136719 971.921875 L 825.117188 972.429688 L 824.09375 972.941406 L 823.074219 973.453125 L 822.050781 973.964844 L 820.519531 973.964844 L 819.5 974.472656 L 818.476562 974.984375 L 817.457031 975.496094 L 814.902344 976.003906 L 813.882812 976.515625 L 812.859375 977.027344 L 811.585938 977.28125 L 810.308594 977.539062 L 809.285156 978.046875 L 808.011719 978.304688 L 806.734375 978.558594 L 805.710938 979.070312 L 804.179688 979.070312 L 803.160156 979.578125 L 801.882812 979.835938 L 800.863281 980.347656 L 799.585938 980.601562 L 798.5625 981.113281 L 795.5 981.113281 L 794.480469 981.621094 L 793.203125 981.878906 L 791.925781 982.132812 L 790.394531 982.132812 L 789.371094 982.644531 L 784.777344 982.644531 L 783.5 982.898438 Z M 783.246094 983.15625 " fill-opacity="1" fill-rule="nonzero"/></svg>